<svg version="1.1" xmlns="http://www.w3.org/2000/svg" xmlns:xlink="http://www.w3.org/1999/xlink" width="500" height="500">
    <defs></defs>
    <g>
        <path fill="rgb(145,181,216)" stroke="none" paint-order="stroke fill markers" d=" M 443.2 159 A 3 3 0 1 1 443.1999985000001 158.9970000005 L 443.2 159.2 A 3 3 0 1 1 443.1999985000001 159.1970000005 Z" fill-opacity="0.6"></path>
        <rect fill="#FFFFFF" stroke="none" x="125" y="125" width="250" height="250"></rect>
        <path fill="rgb(255,99,113)" stroke="none" paint-order="stroke fill markers" d=" M 162.8 348 A 8 8 0 1 1 162.79999600000033 347.99200000133334 L 162.8 347.9 A 8 8 0 1 1 162.79999600000033 347.8920000013333 Z" fill-opacity="0.6"></path>
        <rect fill="#FFFFFF" stroke="none" x="125" y="125" width="250" height="250"></rect>
        <path fill="rgb(255,245,157)" stroke="none" paint-order="stroke fill markers" d=" M 325.2 55 A 2 2 0 1 1 325.19999900000005 54.998000000333334 L 325.2 54.9 A 2 2 0 1 1 325.19999900000005 54.89800000033333 Z" fill-opacity="0.6"></path>
        <rect fill="#FFFFFF" stroke="none" x="125" y="125" width="250" height="250"></rect>
        <path fill="rgb(255,245,157)" stroke="none" paint-order="stroke fill markers" d=" M 437.1 284 A 3 3 0 1 1 437.09999850000014 283.9970000005 L 437.1 284.2 A 3 3 0 1 1 437.09999850000014 284.1970000005 Z" fill-opacity="0.6"></path>
        <rect fill="#FFFFFF" stroke="none" x="125" y="125" width="250" height="250"></rect>
        <path fill="rgb(255,99,113)" stroke="none" paint-order="stroke fill markers" d=" M 156.2 37 A 9 9 0 1 1 156.19999550000037 36.9910000015 L 156.2 36.8 A 9 9 0 1 1 156.19999550000037 36.791000001499995 Z" fill-opacity="0.6"></path>
        <rect fill="#FFFFFF" stroke="none" x="125" y="125" width="250" height="250"></rect>
        <path fill="rgb(163,219,195)" stroke="none" paint-order="stroke fill markers" d=" M 292.1 350 A 8 8 0 1 1 292.0999960000004 349.99200000133334 L 292.1 350.2 A 8 8 0 1 1 292.0999960000004 350.1920000013333 Z" fill-opacity="0.6"></path>
        <rect fill="#FFFFFF" stroke="none" x="125" y="125" width="250" height="250"></rect>
        <path fill="rgb(255,99,113)" stroke="none" paint-order="stroke fill markers" d=" M 470.2 100 A 9 9 0 1 1 470.19999550000034 99.9910000015 L 470.2 99.9 A 9 9 0 1 1 470.19999550000034 99.8910000015 Z" fill-opacity="0.6"></path>
        <rect fill="#FFFFFF" stroke="none" x="125" y="125" width="250" height="250"></rect>
        <path fill="rgb(255,245,157)" stroke="none" paint-order="stroke fill markers" d=" M 53.8 430 A 8 8 0 1 1 53.799996000000334 429.99200000133334 L 53.8 430.2 A 8 8 0 1 1 53.799996000000334 430.1920000013333 Z" fill-opacity="0.6"></path>
        <rect fill="#FFFFFF" stroke="none" x="125" y="125" width="250" height="250"></rect>
        <path fill="rgb(255,99,113)" stroke="none" paint-order="stroke fill markers" d=" M 188.2 17 A 5 5 0 1 1 188.1999975000002 16.99500000083333 L 188.2 17.1 A 5 5 0 1 1 188.1999975000002 17.09500000083333 Z" fill-opacity="0.6"></path>
        <rect fill="#FFFFFF" stroke="none" x="125" y="125" width="250" height="250"></rect>
        <path fill="rgb(163,219,195)" stroke="none" paint-order="stroke fill markers" d=" M 25.1 447 A 4 4 0 1 1 25.09999800000017 446.99600000066664 L 25.1 446.9 A 4 4 0 1 1 25.09999800000017 446.8960000006666 Z" fill-opacity="0.6"></path>
        <rect fill="#FFFFFF" stroke="none" x="125" y="125" width="250" height="250"></rect>
        <path fill="rgb(255,99,113)" stroke="none" paint-order="stroke fill markers" d=" M 247.8 115 A 10 10 0 1 1 247.79999500000042 114.99000000166666 L 247.8 114.9 A 10 10 0 1 1 247.79999500000042 114.89000000166666 Z" fill-opacity="0.6"></path>
        <rect fill="#FFFFFF" stroke="none" x="125" y="125" width="250" height="250"></rect>
        <path fill="rgb(112,106,175)" stroke="none" paint-order="stroke fill markers" d=" M 136.1 349 A 3 3 0 1 1 136.0999985000001 348.9970000005 L 136.1 348.8 A 3 3 0 1 1 136.0999985000001 348.7970000005 Z" fill-opacity="0.6"></path>
        <rect fill="#FFFFFF" stroke="none" x="125" y="125" width="250" height="250"></rect>
        <path fill="rgb(112,106,175)" stroke="none" paint-order="stroke fill markers" d=" M 375.8 77 A 5 5 0 1 1 375.79999750000025 76.99500000083333 L 375.8 76.9 A 5 5 0 1 1 375.79999750000025 76.89500000083333 Z" fill-opacity="0.6"></path>
        <rect fill="#FFFFFF" stroke="none" x="125" y="125" width="250" height="250"></rect>
        <path fill="rgb(255,99,113)" stroke="none" paint-order="stroke fill markers" d=" M 497.2 158 A 9 9 0 1 1 497.19999550000034 157.9910000015 L 497.2 158.1 A 9 9 0 1 1 497.19999550000034 158.0910000015 Z" fill-opacity="0.6"></path>
        <rect fill="#FFFFFF" stroke="none" x="125" y="125" width="250" height="250"></rect>
        <path fill="rgb(145,181,216)" stroke="none" paint-order="stroke fill markers" d=" M 408.1 110 A 3 3 0 1 1 408.09999850000014 109.9970000005 L 408.1 109.9 A 3 3 0 1 1 408.09999850000014 109.8970000005 Z" fill-opacity="0.6"></path>
        <rect fill="#FFFFFF" stroke="none" x="125" y="125" width="250" height="250"></rect>
        <path fill="rgb(163,219,195)" stroke="none" paint-order="stroke fill markers" d=" M 435.8 107 A 3 3 0 1 1 435.79999850000013 106.9970000005 L 435.8 106.9 A 3 3 0 1 1 435.79999850000013 106.8970000005 Z" fill-opacity="0.6"></path>
        <rect fill="#FFFFFF" stroke="none" x="125" y="125" width="250" height="250"></rect>
        <path fill="rgb(255,245,157)" stroke="none" paint-order="stroke fill markers" d=" M 336.2 12 A 3 3 0 1 1 336.1999985000001 11.997000000499998 L 336.2 11.9 A 3 3 0 1 1 336.1999985000001 11.897000000499999 Z" fill-opacity="0.6"></path>
        <rect fill="#FFFFFF" stroke="none" x="125" y="125" width="250" height="250"></rect>
        <path fill="rgb(255,99,113)" stroke="none" paint-order="stroke fill markers" d=" M 363.1 120 A 1 1 0 1 1 363.0999995000001 119.99900000016666 L 363.1 119.8 A 1 1 0 1 1 363.0999995000001 119.79900000016666 Z" fill-opacity="0.6"></path>
        <rect fill="#FFFFFF" stroke="none" x="125" y="125" width="250" height="250"></rect>
        <path fill="rgb(145,181,216)" stroke="none" paint-order="stroke fill markers" d=" M 409.2 386 A 8 8 0 1 1 409.19999600000034 385.99200000133334 L 409.2 386.2 A 8 8 0 1 1 409.19999600000034 386.1920000013333 Z" fill-opacity="0.6"></path>
        <rect fill="#FFFFFF" stroke="none" x="125" y="125" width="250" height="250"></rect>
        <path fill="rgb(163,219,195)" stroke="none" paint-order="stroke fill markers" d=" M 395.2 276 A 9 9 0 1 1 395.19999550000034 275.99100000149997 L 395.2 276.2 A 9 9 0 1 1 395.19999550000034 276.19100000149996 Z" fill-opacity="0.6"></path>
        <rect fill="#FFFFFF" stroke="none" x="125" y="125" width="250" height="250"></rect>
        <path fill="rgb(145,181,216)" stroke="none" paint-order="stroke fill markers" d=" M 391.1 292 A 7 7 0 1 1 391.0999965000003 291.99300000116665 L 391.1 292.2 A 7 7 0 1 1 391.0999965000003 292.19300000116664 Z" fill-opacity="0.6"></path>
        <rect fill="#FFFFFF" stroke="none" x="125" y="125" width="250" height="250"></rect>
        <path fill="rgb(112,106,175)" stroke="none" paint-order="stroke fill markers" d=" M 106.2 13 A 7 7 0 1 1 106.1999965000003 12.993000001166662 L 106.2 13.2 A 7 7 0 1 1 106.1999965000003 13.193000001166661 Z" fill-opacity="0.6"></path>
        <rect fill="#FFFFFF" stroke="none" x="125" y="125" width="250" height="250"></rect>
        <path fill="rgb(145,181,216)" stroke="none" paint-order="stroke fill markers" d=" M 176.8 300 A 2 2 0 1 1 176.7999990000001 299.9980000003333 L 176.8 300.1 A 2 2 0 1 1 176.7999990000001 300.09800000033334 Z" fill-opacity="0.6"></path>
        <rect fill="#FFFFFF" stroke="none" x="125" y="125" width="250" height="250"></rect>
        <path fill="rgb(112,106,175)" stroke="none" paint-order="stroke fill markers" d=" M 345.2 358 A 7 7 0 1 1 345.1999965000003 357.99300000116665 L 345.2 357.9 A 7 7 0 1 1 345.1999965000003 357.8930000011666 Z" fill-opacity="0.6"></path>
        <rect fill="#FFFFFF" stroke="none" x="125" y="125" width="250" height="250"></rect>
        <path fill="rgb(145,181,216)" stroke="none" paint-order="stroke fill markers" d=" M 58.2 181 A 3 3 0 1 1 58.19999850000013 180.9970000005 L 58.2 181.2 A 3 3 0 1 1 58.19999850000013 181.1970000005 Z" fill-opacity="0.6"></path>
        <rect fill="#FFFFFF" stroke="none" x="125" y="125" width="250" height="250"></rect>
        <path fill="rgb(163,219,195)" stroke="none" paint-order="stroke fill markers" d=" M 59.1 225 A 1 1 0 1 1 59.099999500000045 224.99900000016666 L 59.1 224.8 A 1 1 0 1 1 59.099999500000045 224.79900000016667 Z" fill-opacity="0.6"></path>
        <rect fill="#FFFFFF" stroke="none" x="125" y="125" width="250" height="250"></rect>
        <path fill="rgb(163,219,195)" stroke="none" paint-order="stroke fill markers" d=" M 157.2 45 A 2 2 0 1 1 157.19999900000008 44.998000000333334 L 157.2 44.9 A 2 2 0 1 1 157.19999900000008 44.89800000033333 Z" fill-opacity="0.6"></path>
        <rect fill="#FFFFFF" stroke="none" x="125" y="125" width="250" height="250"></rect>
        <path fill="rgb(112,106,175)" stroke="none" paint-order="stroke fill markers" d=" M 165.9 132 A 6 6 0 1 1 165.89999700000027 131.994000001 L 165.9 131.8 A 6 6 0 1 1 165.89999700000027 131.794000001 Z" fill-opacity="0.6"></path>
        <rect fill="#FFFFFF" stroke="none" x="125" y="125" width="250" height="250"></rect>
        <path fill="rgb(112,106,175)" stroke="none" paint-order="stroke fill markers" d=" M 267.2 468 A 10 10 0 1 1 267.1999950000004 467.99000000166666 L 267.2 467.9 A 10 10 0 1 1 267.1999950000004 467.89000000166664 Z" fill-opacity="0.6"></path>
        <rect fill="#FFFFFF" stroke="none" x="125" y="125" width="250" height="250"></rect>
        <path fill="rgb(255,245,157)" stroke="none" paint-order="stroke fill markers" d=" M 243.1 35 A 2 2 0 1 1 243.09999900000008 34.998000000333334 L 243.1 34.9 A 2 2 0 1 1 243.09999900000008 34.89800000033333 Z" fill-opacity="0.6"></path>
        <rect fill="#FFFFFF" stroke="none" x="125" y="125" width="250" height="250"></rect>
        <path fill="rgb(255,245,157)" stroke="none" paint-order="stroke fill markers" d=" M 332.9 88 A 10 10 0 1 1 332.8999950000004 87.99000000166666 L 332.9 88.2 A 10 10 0 1 1 332.8999950000004 88.19000000166666 Z" fill-opacity="0.6"></path>
        <rect fill="#FFFFFF" stroke="none" x="125" y="125" width="250" height="250"></rect>
        <path fill="rgb(112,106,175)" stroke="none" paint-order="stroke fill markers" d=" M 474.8 241 A 2 2 0 1 1 474.79999900000007 240.99800000033332 L 474.8 240.8 A 2 2 0 1 1 474.79999900000007 240.79800000033333 Z" fill-opacity="0.6"></path>
        <rect fill="#FFFFFF" stroke="none" x="125" y="125" width="250" height="250"></rect>
        <path fill="rgb(163,219,195)" stroke="none" paint-order="stroke fill markers" d=" M 57.9 389 A 6 6 0 1 1 57.89999700000025 388.994000001 L 57.9 388.8 A 6 6 0 1 1 57.89999700000025 388.79400000100003 Z" fill-opacity="0.6"></path>
        <rect fill="#FFFFFF" stroke="none" x="125" y="125" width="250" height="250"></rect>
        <path fill="rgb(255,99,113)" stroke="none" paint-order="stroke fill markers" d=" M 76.9 102 A 5 5 0 1 1 76.89999750000021 101.99500000083333 L 76.9 102.1 A 5 5 0 1 1 76.89999750000021 102.09500000083332 Z" fill-opacity="0.6"></path>
        <rect fill="#FFFFFF" stroke="none" x="125" y="125" width="250" height="250"></rect>
        <path fill="rgb(255,245,157)" stroke="none" paint-order="stroke fill markers" d=" M 37.9 386 A 5 5 0 1 1 37.89999750000021 385.99500000083333 L 37.9 385.8 A 5 5 0 1 1 37.89999750000021 385.79500000083334 Z" fill-opacity="0.6"></path>
        <rect fill="#FFFFFF" stroke="none" x="125" y="125" width="250" height="250"></rect>
        <path fill="rgb(255,245,157)" stroke="none" paint-order="stroke fill markers" d=" M 321.9 209 A 10 10 0 1 1 321.8999950000004 208.99000000166666 L 321.9 208.8 A 10 10 0 1 1 321.8999950000004 208.79000000166667 Z" fill-opacity="0.6"></path>
        <rect fill="#FFFFFF" stroke="none" x="125" y="125" width="250" height="250"></rect>
        <path fill="rgb(255,99,113)" stroke="none" paint-order="stroke fill markers" d=" M 203.2 381 A 6 6 0 1 1 203.19999700000025 380.994000001 L 203.2 381.1 A 6 6 0 1 1 203.19999700000025 381.09400000100004 Z" fill-opacity="0.6"></path>
        <rect fill="#FFFFFF" stroke="none" x="125" y="125" width="250" height="250"></rect>
        <path fill="rgb(255,245,157)" stroke="none" paint-order="stroke fill markers" d=" M 469.2 284 A 8 8 0 1 1 469.19999600000034 283.99200000133334 L 469.2 283.9 A 8 8 0 1 1 469.19999600000034 283.8920000013333 Z" fill-opacity="0.6"></path>
        <rect fill="#FFFFFF" stroke="none" x="125" y="125" width="250" height="250"></rect>
        <path fill="rgb(163,219,195)" stroke="none" paint-order="stroke fill markers" d=" M 17.1 410 A 8 8 0 1 1 17.09999600000033 409.99200000133334 L 17.1 410.1 A 8 8 0 1 1 17.09999600000033 410.09200000133336 Z" fill-opacity="0.6"></path>
        <rect fill="#FFFFFF" stroke="none" x="125" y="125" width="250" height="250"></rect>
        <path fill="rgb(145,181,216)" stroke="none" paint-order="stroke fill markers" d=" M 373.9 373 A 7 7 0 1 1 373.89999650000027 372.99300000116665 L 373.9 372.8 A 7 7 0 1 1 373.89999650000027 372.79300000116666 Z" fill-opacity="0.6"></path>
        <rect fill="#FFFFFF" stroke="none" x="125" y="125" width="250" height="250"></rect>
        <path fill="rgb(255,245,157)" stroke="none" paint-order="stroke fill markers" d=" M 391.2 404 A 3 3 0 1 1 391.1999985000001 403.9970000005 L 391.2 404.2 A 3 3 0 1 1 391.1999985000001 404.1970000005 Z" fill-opacity="0.6"></path>
        <rect fill="#FFFFFF" stroke="none" x="125" y="125" width="250" height="250"></rect>
        <path fill="rgb(255,245,157)" stroke="none" paint-order="stroke fill markers" d=" M 320.8 230 A 10 10 0 1 1 320.7999950000004 229.99000000166666 L 320.8 229.9 A 10 10 0 1 1 320.7999950000004 229.89000000166666 Z" fill-opacity="0.6"></path>
        <rect fill="#FFFFFF" stroke="none" x="125" y="125" width="250" height="250"></rect>
        <path fill="rgb(255,245,157)" stroke="none" paint-order="stroke fill markers" d=" M 21.1 462 A 1 1 0 1 1 21.09999950000004 461.9990000001667 L 21.1 462.2 A 1 1 0 1 1 21.09999950000004 462.1990000001667 Z" fill-opacity="0.6"></path>
        <rect fill="#FFFFFF" stroke="none" x="125" y="125" width="250" height="250"></rect>
        <path fill="rgb(255,99,113)" stroke="none" paint-order="stroke fill markers" d=" M 298.2 106 A 3 3 0 1 1 298.1999985000001 105.9970000005 L 298.2 105.8 A 3 3 0 1 1 298.1999985000001 105.79700000049999 Z" fill-opacity="0.6"></path>
        <rect fill="#FFFFFF" stroke="none" x="125" y="125" width="250" height="250"></rect>
        <path fill="rgb(255,99,113)" stroke="none" paint-order="stroke fill markers" d=" M 408.8 499 A 7 7 0 1 1 408.7999965000003 498.99300000116665 L 408.8 499.1 A 7 7 0 1 1 408.7999965000003 499.0930000011667 Z" fill-opacity="0.6"></path>
        <rect fill="#FFFFFF" stroke="none" x="125" y="125" width="250" height="250"></rect>
        <path fill="rgb(145,181,216)" stroke="none" paint-order="stroke fill markers" d=" M 214.2 342 A 7 7 0 1 1 214.19999650000028 341.99300000116665 L 214.2 341.8 A 7 7 0 1 1 214.19999650000028 341.79300000116666 Z" fill-opacity="0.6"></path>
        <rect fill="#FFFFFF" stroke="none" x="125" y="125" width="250" height="250"></rect>
        <path fill="rgb(112,106,175)" stroke="none" paint-order="stroke fill markers" d=" M 93.9 77 A 8 8 0 1 1 93.89999600000034 76.99200000133332 L 93.9 77.2 A 8 8 0 1 1 93.89999600000034 77.19200000133333 Z" fill-opacity="0.6"></path>
        <rect fill="#FFFFFF" stroke="none" x="125" y="125" width="250" height="250"></rect>
        <path fill="rgb(255,245,157)" stroke="none" paint-order="stroke fill markers" d=" M 491.9 325 A 10 10 0 1 1 491.8999950000004 324.99000000166666 L 491.9 325.2 A 10 10 0 1 1 491.8999950000004 325.19000000166665 Z" fill-opacity="0.6"></path>
        <rect fill="#FFFFFF" stroke="none" x="125" y="125" width="250" height="250"></rect>
        <path fill="rgb(163,219,195)" stroke="none" paint-order="stroke fill markers" d=" M 217.9 7 A 10 10 0 1 1 217.89999500000042 6.990000001666661 L 217.9 6.9 A 10 10 0 1 1 217.89999500000042 6.890000001666661 Z" fill-opacity="0.6"></path>
        <rect fill="#FFFFFF" stroke="none" x="125" y="125" width="250" height="250"></rect>
        <path fill="rgb(163,219,195)" stroke="none" paint-order="stroke fill markers" d=" M 63.8 257 A 1 1 0 1 1 63.79999950000004 256.9990000001667 L 63.8 257.1 A 1 1 0 1 1 63.79999950000004 257.0990000001667 Z" fill-opacity="0.6"></path>
        <rect fill="#FFFFFF" stroke="none" x="125" y="125" width="250" height="250"></rect>
        <path fill="rgb(163,219,195)" stroke="none" paint-order="stroke fill markers" d=" M 317.1 183 A 5 5 0 1 1 317.09999750000026 182.99500000083333 L 317.1 183.2 A 5 5 0 1 1 317.09999750000026 183.19500000083332 Z" fill-opacity="0.6"></path>
        <rect fill="#FFFFFF" stroke="none" x="125" y="125" width="250" height="250"></rect>
        <path fill="rgb(255,245,157)" stroke="none" paint-order="stroke fill markers" d=" M 485.2 206 A 7 7 0 1 1 485.1999965000003 205.99300000116665 L 485.2 206.1 A 7 7 0 1 1 485.1999965000003 206.09300000116664 Z" fill-opacity="0.6"></path>
        <rect fill="#FFFFFF" stroke="none" x="125" y="125" width="250" height="250"></rect>
        <path fill="rgb(255,99,113)" stroke="none" paint-order="stroke fill markers" d=" M 169.1 384 A 5 5 0 1 1 169.0999975000002 383.99500000083333 L 169.1 384.1 A 5 5 0 1 1 169.0999975000002 384.09500000083335 Z" fill-opacity="0.6"></path>
        <rect fill="#FFFFFF" stroke="none" x="125" y="125" width="250" height="250"></rect>
        <path fill="rgb(145,181,216)" stroke="none" paint-order="stroke fill markers" d=" M 460.9 300 A 8 8 0 1 1 460.89999600000033 299.99200000133334 L 460.9 299.9 A 8 8 0 1 1 460.89999600000033 299.8920000013333 Z" fill-opacity="0.6"></path>
        <rect fill="#FFFFFF" stroke="none" x="125" y="125" width="250" height="250"></rect>
        <path fill="rgb(112,106,175)" stroke="none" paint-order="stroke fill markers" d=" M 370.2 93 A 1 1 0 1 1 370.19999950000005 92.99900000016666 L 370.2 92.8 A 1 1 0 1 1 370.19999950000005 92.79900000016666 Z" fill-opacity="0.6"></path>
        <rect fill="#FFFFFF" stroke="none" x="125" y="125" width="250" height="250"></rect>
        <path fill="rgb(112,106,175)" stroke="none" paint-order="stroke fill markers" d=" M 475.8 306 A 7 7 0 1 1 475.7999965000003 305.99300000116665 L 475.8 305.9 A 7 7 0 1 1 475.7999965000003 305.8930000011666 Z" fill-opacity="0.6"></path>
        <rect fill="#FFFFFF" stroke="none" x="125" y="125" width="250" height="250"></rect>
        <path fill="rgb(255,245,157)" stroke="none" paint-order="stroke fill markers" d=" M 188.9 347 A 4 4 0 1 1 188.89999800000018 346.99600000066664 L 188.9 347.1 A 4 4 0 1 1 188.89999800000018 347.09600000066666 Z" fill-opacity="0.6"></path>
        <rect fill="#FFFFFF" stroke="none" x="125" y="125" width="250" height="250"></rect>
        <path fill="rgb(255,245,157)" stroke="none" paint-order="stroke fill markers" d=" M 480.8 326 A 8 8 0 1 1 480.79999600000036 325.99200000133334 L 480.8 325.9 A 8 8 0 1 1 480.79999600000036 325.8920000013333 Z" fill-opacity="0.6"></path>
        <rect fill="#FFFFFF" stroke="none" x="125" y="125" width="250" height="250"></rect>
        <path fill="rgb(255,245,157)" stroke="none" paint-order="stroke fill markers" d=" M 357.2 451 A 4 4 0 1 1 357.19999800000016 450.99600000066664 L 357.2 450.9 A 4 4 0 1 1 357.19999800000016 450.8960000006666 Z" fill-opacity="0.6"></path>
        <rect fill="#FFFFFF" stroke="none" x="125" y="125" width="250" height="250"></rect>
        <path fill="rgb(112,106,175)" stroke="none" paint-order="stroke fill markers" d=" M 347.2 20 A 3 3 0 1 1 347.1999985000001 19.997000000499998 L 347.2 19.8 A 3 3 0 1 1 347.1999985000001 19.7970000005 Z" fill-opacity="0.6"></path>
        <rect fill="#FFFFFF" stroke="none" x="125" y="125" width="250" height="250"></rect>
        <path fill="rgb(145,181,216)" stroke="none" paint-order="stroke fill markers" d=" M 495.2 405 A 8 8 0 1 1 495.19999600000034 404.99200000133334 L 495.2 404.8 A 8 8 0 1 1 495.19999600000034 404.79200000133335 Z" fill-opacity="0.6"></path>
        <rect fill="#FFFFFF" stroke="none" x="125" y="125" width="250" height="250"></rect>
        <path fill="rgb(145,181,216)" stroke="none" paint-order="stroke fill markers" d=" M 363.1 97 A 10 10 0 1 1 363.09999500000043 96.99000000166666 L 363.1 97.2 A 10 10 0 1 1 363.09999500000043 97.19000000166666 Z" fill-opacity="0.6"></path>
        <rect fill="#FFFFFF" stroke="none" x="125" y="125" width="250" height="250"></rect>
        <path fill="rgb(255,99,113)" stroke="none" paint-order="stroke fill markers" d=" M 20.8 399 A 4 4 0 1 1 20.799998000000166 398.99600000066664 L 20.8 399.1 A 4 4 0 1 1 20.799998000000166 399.09600000066666 Z" fill-opacity="0.6"></path>
        <rect fill="#FFFFFF" stroke="none" x="125" y="125" width="250" height="250"></rect>
        <path fill="rgb(255,245,157)" stroke="none" paint-order="stroke fill markers" d=" M 195.2 472 A 8 8 0 1 1 195.1999960000003 471.99200000133334 L 195.2 471.9 A 8 8 0 1 1 195.1999960000003 471.8920000013333 Z" fill-opacity="0.6"></path>
        <rect fill="#FFFFFF" stroke="none" x="125" y="125" width="250" height="250"></rect>
        <path fill="rgb(145,181,216)" stroke="none" paint-order="stroke fill markers" d=" M 29.9 219 A 10 10 0 1 1 29.899995000000416 218.99000000166666 L 29.9 218.8 A 10 10 0 1 1 29.899995000000416 218.79000000166667 Z" fill-opacity="0.6"></path>
        <rect fill="#FFFFFF" stroke="none" x="125" y="125" width="250" height="250"></rect>
        <path fill="rgb(163,219,195)" stroke="none" paint-order="stroke fill markers" d=" M 278.1 215 A 1 1 0 1 1 278.0999995000001 214.99900000016666 L 278.1 215.2 A 1 1 0 1 1 278.0999995000001 215.19900000016665 Z" fill-opacity="0.6"></path>
        <rect fill="#FFFFFF" stroke="none" x="125" y="125" width="250" height="250"></rect>
        <path fill="rgb(112,106,175)" stroke="none" paint-order="stroke fill markers" d=" M 408.1 2 A 5 5 0 1 1 408.09999750000026 1.9950000008333304 L 408.1 2.2 A 5 5 0 1 1 408.09999750000026 2.1950000008333306 Z" fill-opacity="0.6"></path>
        <rect fill="#FFFFFF" stroke="none" x="125" y="125" width="250" height="250"></rect>
        <path fill="rgb(163,219,195)" stroke="none" paint-order="stroke fill markers" d=" M 417.8 53 A 7 7 0 1 1 417.7999965000003 52.99300000116666 L 417.8 52.8 A 7 7 0 1 1 417.7999965000003 52.79300000116666 Z" fill-opacity="0.6"></path>
        <rect fill="#FFFFFF" stroke="none" x="125" y="125" width="250" height="250"></rect>
        <path fill="rgb(145,181,216)" stroke="none" paint-order="stroke fill markers" d=" M 317.1 371 A 2 2 0 1 1 317.0999990000001 370.9980000003333 L 317.1 370.9 A 2 2 0 1 1 317.0999990000001 370.8980000003333 Z" fill-opacity="0.6"></path>
        <rect fill="#FFFFFF" stroke="none" x="125" y="125" width="250" height="250"></rect>
        <path fill="rgb(163,219,195)" stroke="none" paint-order="stroke fill markers" d=" M 167.9 92 A 9 9 0 1 1 167.8999955000004 91.9910000015 L 167.9 92.2 A 9 9 0 1 1 167.8999955000004 92.1910000015 Z" fill-opacity="0.6"></path>
        <rect fill="#FFFFFF" stroke="none" x="125" y="125" width="250" height="250"></rect>
        <path fill="rgb(255,245,157)" stroke="none" paint-order="stroke fill markers" d=" M 217.9 162 A 4 4 0 1 1 217.89999800000018 161.99600000066667 L 217.9 162.2 A 4 4 0 1 1 217.89999800000018 162.19600000066666 Z" fill-opacity="0.6"></path>
        <rect fill="#FFFFFF" stroke="none" x="125" y="125" width="250" height="250"></rect>
        <path fill="rgb(145,181,216)" stroke="none" paint-order="stroke fill markers" d=" M 147.8 298 A 4 4 0 1 1 147.7999980000002 297.99600000066664 L 147.8 297.9 A 4 4 0 1 1 147.7999980000002 297.8960000006666 Z" fill-opacity="0.6"></path>
        <rect fill="#FFFFFF" stroke="none" x="125" y="125" width="250" height="250"></rect>
        <path fill="rgb(163,219,195)" stroke="none" paint-order="stroke fill markers" d=" M 169.8 164 A 5 5 0 1 1 169.79999750000022 163.99500000083333 L 169.8 164.1 A 5 5 0 1 1 169.79999750000022 164.09500000083332 Z" fill-opacity="0.6"></path>
        <rect fill="#FFFFFF" stroke="none" x="125" y="125" width="250" height="250"></rect>
        <path fill="rgb(163,219,195)" stroke="none" paint-order="stroke fill markers" d=" M 137.1 470 A 9 9 0 1 1 137.09999550000038 469.99100000149997 L 137.1 469.9 A 9 9 0 1 1 137.09999550000038 469.89100000149995 Z" fill-opacity="0.6"></path>
        <rect fill="#FFFFFF" stroke="none" x="125" y="125" width="250" height="250"></rect>
        <path fill="rgb(112,106,175)" stroke="none" paint-order="stroke fill markers" d=" M 184.1 487 A 3 3 0 1 1 184.0999985000001 486.9970000005 L 184.1 487.2 A 3 3 0 1 1 184.0999985000001 487.1970000005 Z" fill-opacity="0.6"></path>
        <rect fill="#FFFFFF" stroke="none" x="125" y="125" width="250" height="250"></rect>
        <path fill="rgb(163,219,195)" stroke="none" paint-order="stroke fill markers" d=" M 351.8 481 A 3 3 0 1 1 351.79999850000013 480.9970000005 L 351.8 481.2 A 3 3 0 1 1 351.79999850000013 481.1970000005 Z" fill-opacity="0.6"></path>
        <rect fill="#FFFFFF" stroke="none" x="125" y="125" width="250" height="250"></rect>
        <path fill="rgb(112,106,175)" stroke="none" paint-order="stroke fill markers" d=" M 436.1 454 A 8 8 0 1 1 436.0999960000004 453.99200000133334 L 436.1 454.2 A 8 8 0 1 1 436.0999960000004 454.1920000013333 Z" fill-opacity="0.6"></path>
        <rect fill="#FFFFFF" stroke="none" x="125" y="125" width="250" height="250"></rect>
        <path fill="rgb(163,219,195)" stroke="none" paint-order="stroke fill markers" d=" M 378.2 388 A 3 3 0 1 1 378.1999985000001 387.9970000005 L 378.2 387.8 A 3 3 0 1 1 378.1999985000001 387.7970000005 Z" fill-opacity="0.6"></path>
        <rect fill="#FFFFFF" stroke="none" x="125" y="125" width="250" height="250"></rect>
        <path fill="rgb(112,106,175)" stroke="none" paint-order="stroke fill markers" d=" M 79.9 425 A 5 5 0 1 1 79.89999750000021 424.99500000083333 L 79.9 425.2 A 5 5 0 1 1 79.89999750000021 425.1950000008333 Z" fill-opacity="0.6"></path>
        <rect fill="#FFFFFF" stroke="none" x="125" y="125" width="250" height="250"></rect>
        <path fill="rgb(145,181,216)" stroke="none" paint-order="stroke fill markers" d=" M 323.9 356 A 2 2 0 1 1 323.89999900000004 355.9980000003333 L 323.9 355.8 A 2 2 0 1 1 323.89999900000004 355.79800000033333 Z" fill-opacity="0.6"></path>
        <rect fill="#FFFFFF" stroke="none" x="125" y="125" width="250" height="250"></rect>
        <path fill="rgb(112,106,175)" stroke="none" paint-order="stroke fill markers" d=" M 157.8 116 A 5 5 0 1 1 157.79999750000022 115.99500000083333 L 157.8 115.8 A 5 5 0 1 1 157.79999750000022 115.79500000083333 Z" fill-opacity="0.6"></path>
        <rect fill="#FFFFFF" stroke="none" x="125" y="125" width="250" height="250"></rect>
        <path fill="rgb(255,245,157)" stroke="none" paint-order="stroke fill markers" d=" M 417.9 120 A 7 7 0 1 1 417.89999650000027 119.99300000116666 L 417.9 119.9 A 7 7 0 1 1 417.89999650000027 119.89300000116667 Z" fill-opacity="0.6"></path>
        <rect fill="#FFFFFF" stroke="none" x="125" y="125" width="250" height="250"></rect>
        <path fill="rgb(255,245,157)" stroke="none" paint-order="stroke fill markers" d=" M 165.2 169 A 9 9 0 1 1 165.19999550000037 168.9910000015 L 165.2 168.9 A 9 9 0 1 1 165.19999550000037 168.8910000015 Z" fill-opacity="0.6"></path>
        <rect fill="#FFFFFF" stroke="none" x="125" y="125" width="250" height="250"></rect>
        <path fill="rgb(255,245,157)" stroke="none" paint-order="stroke fill markers" d=" M 110.1 456 A 10 10 0 1 1 110.0999950000004 455.99000000166666 L 110.1 455.9 A 10 10 0 1 1 110.0999950000004 455.89000000166664 Z" fill-opacity="0.6"></path>
        <rect fill="#FFFFFF" stroke="none" x="125" y="125" width="250" height="250"></rect>
        <path fill="rgb(163,219,195)" stroke="none" paint-order="stroke fill markers" d=" M 456.1 34 A 5 5 0 1 1 456.09999750000026 33.99500000083333 L 456.1 33.9 A 5 5 0 1 1 456.09999750000026 33.89500000083333 Z" fill-opacity="0.6"></path>
        <rect fill="#FFFFFF" stroke="none" x="125" y="125" width="250" height="250"></rect>
        <path fill="rgb(163,219,195)" stroke="none" paint-order="stroke fill markers" d=" M 402.1 462 A 9 9 0 1 1 402.0999955000004 461.99100000149997 L 402.1 462.2 A 9 9 0 1 1 402.0999955000004 462.19100000149996 Z" fill-opacity="0.6"></path>
        <rect fill="#FFFFFF" stroke="none" x="125" y="125" width="250" height="250"></rect>
        <path fill="rgb(163,219,195)" stroke="none" paint-order="stroke fill markers" d=" M 67.2 52 A 8 8 0 1 1 67.19999600000034 51.99200000133333 L 67.2 51.9 A 8 8 0 1 1 67.19999600000034 51.89200000133333 Z" fill-opacity="0.6"></path>
        <rect fill="#FFFFFF" stroke="none" x="125" y="125" width="250" height="250"></rect>
        <path fill="rgb(255,245,157)" stroke="none" paint-order="stroke fill markers" d=" M 472.2 416 A 9 9 0 1 1 472.19999550000034 415.99100000149997 L 472.2 416.1 A 9 9 0 1 1 472.19999550000034 416.0910000015 Z" fill-opacity="0.6"></path>
        <rect fill="#FFFFFF" stroke="none" x="125" y="125" width="250" height="250"></rect>
        <path fill="rgb(255,245,157)" stroke="none" paint-order="stroke fill markers" d=" M 401.2 113 A 10 10 0 1 1 401.1999950000004 112.99000000166666 L 401.2 112.8 A 10 10 0 1 1 401.1999950000004 112.79000000166666 Z" fill-opacity="0.6"></path>
        <rect fill="#FFFFFF" stroke="none" x="125" y="125" width="250" height="250"></rect>
        <path fill="rgb(145,181,216)" stroke="none" paint-order="stroke fill markers" d=" M 256.9 134 A 9 9 0 1 1 256.8999955000004 133.9910000015 L 256.9 134.2 A 9 9 0 1 1 256.8999955000004 134.1910000015 Z" fill-opacity="0.6"></path>
        <rect fill="#FFFFFF" stroke="none" x="125" y="125" width="250" height="250"></rect>
        <path fill="rgb(163,219,195)" stroke="none" paint-order="stroke fill markers" d=" M 62.1 114 A 1 1 0 1 1 62.099999500000045 113.99900000016666 L 62.1 114.2 A 1 1 0 1 1 62.099999500000045 114.19900000016666 Z" fill-opacity="0.6"></path>
        <rect fill="#FFFFFF" stroke="none" x="125" y="125" width="250" height="250"></rect>
        <path fill="rgb(255,99,113)" stroke="none" paint-order="stroke fill markers" d=" M 351.1 81 A 5 5 0 1 1 351.09999750000026 80.99500000083333 L 351.1 80.8 A 5 5 0 1 1 351.09999750000026 80.79500000083333 Z" fill-opacity="0.6"></path>
        <rect fill="#FFFFFF" stroke="none" x="125" y="125" width="250" height="250"></rect>
        <path fill="rgb(112,106,175)" stroke="none" paint-order="stroke fill markers" d=" M 17.2 222 A 7 7 0 1 1 17.19999650000029 221.99300000116665 L 17.2 222.2 A 7 7 0 1 1 17.19999650000029 222.19300000116664 Z" fill-opacity="0.6"></path>
        <rect fill="#FFFFFF" stroke="none" x="125" y="125" width="250" height="250"></rect>
        <path fill="rgb(163,219,195)" stroke="none" paint-order="stroke fill markers" d=" M 374.8 14 A 5 5 0 1 1 374.79999750000025 13.99500000083333 L 374.8 14.1 A 5 5 0 1 1 374.79999750000025 14.09500000083333 Z" fill-opacity="0.6"></path>
        <rect fill="#FFFFFF" stroke="none" x="125" y="125" width="250" height="250"></rect>
        <path fill="rgb(255,99,113)" stroke="none" paint-order="stroke fill markers" d=" M 410.8 339 A 6 6 0 1 1 410.79999700000025 338.994000001 L 410.8 338.8 A 6 6 0 1 1 410.79999700000025 338.79400000100003 Z" fill-opacity="0.6"></path>
        <rect fill="#FFFFFF" stroke="none" x="125" y="125" width="250" height="250"></rect>
        <path fill="rgb(255,99,113)" stroke="none" paint-order="stroke fill markers" d=" M 227.8 0 A 6 6 0 1 1 227.79999700000027 -0.005999999000003524 L 227.8 0.2 A 6 6 0 1 1 227.79999700000027 0.19400000099999648 Z" fill-opacity="0.6"></path>
        <rect fill="#FFFFFF" stroke="none" x="125" y="125" width="250" height="250"></rect>
        <path fill="rgb(255,99,113)" stroke="none" paint-order="stroke fill markers" d=" M 200.1 356 A 2 2 0 1 1 200.09999900000008 355.9980000003333 L 200.1 356.1 A 2 2 0 1 1 200.09999900000008 356.09800000033334 Z" fill-opacity="0.6"></path>
        <rect fill="#FFFFFF" stroke="none" x="125" y="125" width="250" height="250"></rect>
        <path fill="rgb(163,219,195)" stroke="none" paint-order="stroke fill markers" d=" M 453.9 454 A 4 4 0 1 1 453.89999800000015 453.99600000066664 L 453.9 453.8 A 4 4 0 1 1 453.89999800000015 453.79600000066665 Z" fill-opacity="0.6"></path>
        <rect fill="#FFFFFF" stroke="none" x="125" y="125" width="250" height="250"></rect>
        <path fill="rgb(112,106,175)" stroke="none" paint-order="stroke fill markers" d=" M 439.9 107 A 2 2 0 1 1 439.89999900000004 106.99800000033333 L 439.9 107.1 A 2 2 0 1 1 439.89999900000004 107.09800000033333 Z" fill-opacity="0.6"></path>
        <rect fill="#FFFFFF" stroke="none" x="125" y="125" width="250" height="250"></rect>
        <path fill="rgb(163,219,195)" stroke="none" paint-order="stroke fill markers" d=" M 236.1 261 A 9 9 0 1 1 236.09999550000038 260.99100000149997 L 236.1 260.9 A 9 9 0 1 1 236.09999550000038 260.89100000149995 Z" fill-opacity="0.6"></path>
        <rect fill="#FFFFFF" stroke="none" x="125" y="125" width="250" height="250"></rect>
        <path fill="rgb(163,219,195)" stroke="none" paint-order="stroke fill markers" d=" M 376.8 120 A 4 4 0 1 1 376.7999980000002 119.99600000066667 L 376.8 120.2 A 4 4 0 1 1 376.7999980000002 120.19600000066667 Z" fill-opacity="0.6"></path>
        <rect fill="#FFFFFF" stroke="none" x="125" y="125" width="250" height="250"></rect>
        <path fill="rgb(255,99,113)" stroke="none" paint-order="stroke fill markers" d=" M 26.2 110 A 9 9 0 1 1 26.199995500000377 109.9910000015 L 26.2 109.9 A 9 9 0 1 1 26.199995500000377 109.8910000015 Z" fill-opacity="0.6"></path>
        <rect fill="#FFFFFF" stroke="none" x="125" y="125" width="250" height="250"></rect>
        <path fill="rgb(145,181,216)" stroke="none" paint-order="stroke fill markers" d=" M 442.9 418 A 4 4 0 1 1 442.89999800000015 417.99600000066664 L 442.9 418.1 A 4 4 0 1 1 442.89999800000015 418.09600000066666 Z" fill-opacity="0.6"></path>
        <rect fill="#FFFFFF" stroke="none" x="125" y="125" width="250" height="250"></rect>
        <path fill="rgb(112,106,175)" stroke="none" paint-order="stroke fill markers" d=" M 173.1 465 A 7 7 0 1 1 173.0999965000003 464.99300000116665 L 173.1 465.2 A 7 7 0 1 1 173.0999965000003 465.19300000116664 Z" fill-opacity="0.6"></path>
        <rect fill="#FFFFFF" stroke="none" x="125" y="125" width="250" height="250"></rect>
        <path fill="rgb(163,219,195)" stroke="none" paint-order="stroke fill markers" d=" M 401.1 394 A 9 9 0 1 1 401.0999955000004 393.99100000149997 L 401.1 394.2 A 9 9 0 1 1 401.0999955000004 394.19100000149996 Z" fill-opacity="0.6"></path>
        <rect fill="#FFFFFF" stroke="none" x="125" y="125" width="250" height="250"></rect>
        <path fill="rgb(255,245,157)" stroke="none" paint-order="stroke fill markers" d=" M 444.9 130 A 3 3 0 1 1 444.8999985000001 129.9970000005 L 444.9 130.2 A 3 3 0 1 1 444.8999985000001 130.1970000005 Z" fill-opacity="0.6"></path>
        <rect fill="#FFFFFF" stroke="none" x="125" y="125" width="250" height="250"></rect>
        <path fill="rgb(112,106,175)" stroke="none" paint-order="stroke fill markers" d=" M 87.2 206 A 9 9 0 1 1 87.19999550000038 205.9910000015 L 87.2 205.9 A 9 9 0 1 1 87.19999550000038 205.8910000015 Z" fill-opacity="0.6"></path>
        <rect fill="#FFFFFF" stroke="none" x="125" y="125" width="250" height="250"></rect>
        <path fill="rgb(145,181,216)" stroke="none" paint-order="stroke fill markers" d=" M 390.8 180 A 3 3 0 1 1 390.79999850000013 179.9970000005 L 390.8 180.2 A 3 3 0 1 1 390.79999850000013 180.1970000005 Z" fill-opacity="0.6"></path>
        <rect fill="#FFFFFF" stroke="none" x="125" y="125" width="250" height="250"></rect>
        <path fill="rgb(112,106,175)" stroke="none" paint-order="stroke fill markers" d=" M 280.2 82 A 2 2 0 1 1 280.19999900000005 81.99800000033333 L 280.2 82.1 A 2 2 0 1 1 280.19999900000005 82.09800000033333 Z" fill-opacity="0.6"></path>
        <rect fill="#FFFFFF" stroke="none" x="125" y="125" width="250" height="250"></rect>
        <path fill="rgb(112,106,175)" stroke="none" paint-order="stroke fill markers" d=" M 322.1 275 A 3 3 0 1 1 322.09999850000014 274.9970000005 L 322.1 275.2 A 3 3 0 1 1 322.09999850000014 275.1970000005 Z" fill-opacity="0.6"></path>
        <rect fill="#FFFFFF" stroke="none" x="125" y="125" width="250" height="250"></rect>
        <path fill="rgb(163,219,195)" stroke="none" paint-order="stroke fill markers" d=" M 492.9 186 A 7 7 0 1 1 492.89999650000027 185.99300000116665 L 492.9 185.8 A 7 7 0 1 1 492.89999650000027 185.79300000116666 Z" fill-opacity="0.6"></path>
        <rect fill="#FFFFFF" stroke="none" x="125" y="125" width="250" height="250"></rect>
        <path fill="rgb(145,181,216)" stroke="none" paint-order="stroke fill markers" d=" M 59.1 182 A 10 10 0 1 1 59.09999500000042 181.99000000166666 L 59.1 182.2 A 10 10 0 1 1 59.09999500000042 182.19000000166665 Z" fill-opacity="0.6"></path>
        <rect fill="#FFFFFF" stroke="none" x="125" y="125" width="250" height="250"></rect>
        <path fill="rgb(255,99,113)" stroke="none" paint-order="stroke fill markers" d=" M 112.2 305 A 3 3 0 1 1 112.19999850000013 304.9970000005 L 112.2 304.9 A 3 3 0 1 1 112.19999850000013 304.8970000005 Z" fill-opacity="0.6"></path>
        <rect fill="#FFFFFF" stroke="none" x="125" y="125" width="250" height="250"></rect>
        <path fill="rgb(112,106,175)" stroke="none" paint-order="stroke fill markers" d=" M 82.9 120 A 5 5 0 1 1 82.89999750000021 119.99500000083333 L 82.9 120.2 A 5 5 0 1 1 82.89999750000021 120.19500000083333 Z" fill-opacity="0.6"></path>
        <rect fill="#FFFFFF" stroke="none" x="125" y="125" width="250" height="250"></rect>
        <path fill="rgb(255,245,157)" stroke="none" paint-order="stroke fill markers" d=" M 448.1 480 A 4 4 0 1 1 448.0999980000002 479.99600000066664 L 448.1 479.9 A 4 4 0 1 1 448.0999980000002 479.8960000006666 Z" fill-opacity="0.6"></path>
        <rect fill="#FFFFFF" stroke="none" x="125" y="125" width="250" height="250"></rect>
        <path fill="rgb(255,245,157)" stroke="none" paint-order="stroke fill markers" d=" M 434.2 495 A 2 2 0 1 1 434.19999900000005 494.9980000003333 L 434.2 495.1 A 2 2 0 1 1 434.19999900000005 495.09800000033334 Z" fill-opacity="0.6"></path>
        <rect fill="#FFFFFF" stroke="none" x="125" y="125" width="250" height="250"></rect>
        <path fill="rgb(112,106,175)" stroke="none" paint-order="stroke fill markers" d=" M 168.8 289 A 2 2 0 1 1 168.7999990000001 288.9980000003333 L 168.8 289.2 A 2 2 0 1 1 168.7999990000001 289.1980000003333 Z" fill-opacity="0.6"></path>
        <rect fill="#FFFFFF" stroke="none" x="125" y="125" width="250" height="250"></rect>
        <path fill="rgb(163,219,195)" stroke="none" paint-order="stroke fill markers" d=" M 225.8 24 A 2 2 0 1 1 225.7999990000001 23.99800000033333 L 225.8 23.8 A 2 2 0 1 1 225.7999990000001 23.79800000033333 Z" fill-opacity="0.6"></path>
        <rect fill="#FFFFFF" stroke="none" x="125" y="125" width="250" height="250"></rect>
        <path fill="rgb(255,99,113)" stroke="none" paint-order="stroke fill markers" d=" M 187.2 198 A 9 9 0 1 1 187.19999550000037 197.9910000015 L 187.2 198.1 A 9 9 0 1 1 187.19999550000037 198.0910000015 Z" fill-opacity="0.6"></path>
        <rect fill="#FFFFFF" stroke="none" x="125" y="125" width="250" height="250"></rect>
        <path fill="rgb(163,219,195)" stroke="none" paint-order="stroke fill markers" d=" M 392.1 362 A 3 3 0 1 1 392.09999850000014 361.9970000005 L 392.1 361.9 A 3 3 0 1 1 392.09999850000014 361.8970000005 Z" fill-opacity="0.6"></path>
        <rect fill="#FFFFFF" stroke="none" x="125" y="125" width="250" height="250"></rect>
        <path fill="rgb(163,219,195)" stroke="none" paint-order="stroke fill markers" d=" M 134.2 252 A 6 6 0 1 1 134.19999700000025 251.994000001 L 134.2 251.8 A 6 6 0 1 1 134.19999700000025 251.794000001 Z" fill-opacity="0.6"></path>
        <rect fill="#FFFFFF" stroke="none" x="125" y="125" width="250" height="250"></rect>
        <path fill="rgb(112,106,175)" stroke="none" paint-order="stroke fill markers" d=" M 278.8 419 A 6 6 0 1 1 278.79999700000025 418.994000001 L 278.8 419.1 A 6 6 0 1 1 278.79999700000025 419.09400000100004 Z" fill-opacity="0.6"></path>
        <rect fill="#FFFFFF" stroke="none" x="125" y="125" width="250" height="250"></rect>
        <path fill="rgb(163,219,195)" stroke="none" paint-order="stroke fill markers" d=" M 231.9 469 A 9 9 0 1 1 231.8999955000004 468.99100000149997 L 231.9 469.2 A 9 9 0 1 1 231.8999955000004 469.19100000149996 Z" fill-opacity="0.6"></path>
        <rect fill="#FFFFFF" stroke="none" x="125" y="125" width="250" height="250"></rect>
        <path fill="rgb(145,181,216)" stroke="none" paint-order="stroke fill markers" d=" M 116.1 465 A 2 2 0 1 1 116.09999900000008 464.9980000003333 L 116.1 464.8 A 2 2 0 1 1 116.09999900000008 464.79800000033333 Z" fill-opacity="0.6"></path>
        <rect fill="#FFFFFF" stroke="none" x="125" y="125" width="250" height="250"></rect>
        <path fill="rgb(112,106,175)" stroke="none" paint-order="stroke fill markers" d=" M 386.8 39 A 7 7 0 1 1 386.7999965000003 38.99300000116666 L 386.8 39.1 A 7 7 0 1 1 386.7999965000003 39.093000001166665 Z" fill-opacity="0.6"></path>
        <rect fill="#FFFFFF" stroke="none" x="125" y="125" width="250" height="250"></rect>
        <path fill="rgb(145,181,216)" stroke="none" paint-order="stroke fill markers" d=" M 302.1 87 A 5 5 0 1 1 302.09999750000026 86.99500000083333 L 302.1 86.8 A 5 5 0 1 1 302.09999750000026 86.79500000083333 Z" fill-opacity="0.6"></path>
        <rect fill="#FFFFFF" stroke="none" x="125" y="125" width="250" height="250"></rect>
        <path fill="rgb(255,99,113)" stroke="none" paint-order="stroke fill markers" d=" M 259.1 37 A 7 7 0 1 1 259.09999650000026 36.99300000116666 L 259.1 37.1 A 7 7 0 1 1 259.09999650000026 37.093000001166665 Z" fill-opacity="0.6"></path>
        <rect fill="#FFFFFF" stroke="none" x="125" y="125" width="250" height="250"></rect>
        <path fill="rgb(255,245,157)" stroke="none" paint-order="stroke fill markers" d=" M 466.9 123 A 6 6 0 1 1 466.8999970000002 122.994000001 L 466.9 123.2 A 6 6 0 1 1 466.8999970000002 123.194000001 Z" fill-opacity="0.6"></path>
        <rect fill="#FFFFFF" stroke="none" x="125" y="125" width="250" height="250"></rect>
        <path fill="rgb(145,181,216)" stroke="none" paint-order="stroke fill markers" d=" M 60.9 432 A 8 8 0 1 1 60.89999600000033 431.99200000133334 L 60.9 431.9 A 8 8 0 1 1 60.89999600000033 431.8920000013333 Z" fill-opacity="0.6"></path>
        <rect fill="#FFFFFF" stroke="none" x="125" y="125" width="250" height="250"></rect>
        <path fill="rgb(112,106,175)" stroke="none" paint-order="stroke fill markers" d=" M 306.8 125 A 6 6 0 1 1 306.79999700000025 124.994000001 L 306.8 125.1 A 6 6 0 1 1 306.79999700000025 125.094000001 Z" fill-opacity="0.6"></path>
        <rect fill="#FFFFFF" stroke="none" x="125" y="125" width="250" height="250"></rect>
        <path fill="rgb(145,181,216)" stroke="none" paint-order="stroke fill markers" d=" M 214.2 454 A 7 7 0 1 1 214.19999650000028 453.99300000116665 L 214.2 454.1 A 7 7 0 1 1 214.19999650000028 454.0930000011667 Z" fill-opacity="0.6"></path>
        <rect fill="#FFFFFF" stroke="none" x="125" y="125" width="250" height="250"></rect>
        <path fill="rgb(112,106,175)" stroke="none" paint-order="stroke fill markers" d=" M 245.8 76 A 2 2 0 1 1 245.7999990000001 75.99800000033333 L 245.8 76.1 A 2 2 0 1 1 245.7999990000001 76.09800000033333 Z" fill-opacity="0.6"></path>
        <rect fill="#FFFFFF" stroke="none" x="125" y="125" width="250" height="250"></rect>
        <path fill="rgb(163,219,195)" stroke="none" paint-order="stroke fill markers" d=" M 492.2 74 A 3 3 0 1 1 492.1999985000001 73.9970000005 L 492.2 74.2 A 3 3 0 1 1 492.1999985000001 74.1970000005 Z" fill-opacity="0.6"></path>
        <rect fill="#FFFFFF" stroke="none" x="125" y="125" width="250" height="250"></rect>
        <path fill="rgb(112,106,175)" stroke="none" paint-order="stroke fill markers" d=" M 384.9 193 A 5 5 0 1 1 384.8999975000002 192.99500000083333 L 384.9 193.2 A 5 5 0 1 1 384.8999975000002 193.19500000083332 Z" fill-opacity="0.6"></path>
        <rect fill="#FFFFFF" stroke="none" x="125" y="125" width="250" height="250"></rect>
        <path fill="rgb(112,106,175)" stroke="none" paint-order="stroke fill markers" d=" M 229.8 155 A 4 4 0 1 1 229.7999980000002 154.99600000066667 L 229.8 155.2 A 4 4 0 1 1 229.7999980000002 155.19600000066666 Z" fill-opacity="0.6"></path>
        <rect fill="#FFFFFF" stroke="none" x="125" y="125" width="250" height="250"></rect>
        <path fill="rgb(255,99,113)" stroke="none" paint-order="stroke fill markers" d=" M 358.1 495 A 6 6 0 1 1 358.09999700000026 494.994000001 L 358.1 495.2 A 6 6 0 1 1 358.09999700000026 495.194000001 Z" fill-opacity="0.6"></path>
        <rect fill="#FFFFFF" stroke="none" x="125" y="125" width="250" height="250"></rect>
        <path fill="rgb(163,219,195)" stroke="none" paint-order="stroke fill markers" d=" M 63.9 430 A 8 8 0 1 1 63.89999600000033 429.99200000133334 L 63.9 430.1 A 8 8 0 1 1 63.89999600000033 430.09200000133336 Z" fill-opacity="0.6"></path>
        <rect fill="#FFFFFF" stroke="none" x="125" y="125" width="250" height="250"></rect>
        <path fill="rgb(255,245,157)" stroke="none" paint-order="stroke fill markers" d=" M 317.8 157 A 9 9 0 1 1 317.79999550000036 156.9910000015 L 317.8 157.1 A 9 9 0 1 1 317.79999550000036 157.0910000015 Z" fill-opacity="0.6"></path>
        <rect fill="#FFFFFF" stroke="none" x="125" y="125" width="250" height="250"></rect>
        <path fill="rgb(112,106,175)" stroke="none" paint-order="stroke fill markers" d=" M 470.2 122 A 7 7 0 1 1 470.1999965000003 121.99300000116666 L 470.2 122.1 A 7 7 0 1 1 470.1999965000003 122.09300000116666 Z" fill-opacity="0.6"></path>
        <rect fill="#FFFFFF" stroke="none" x="125" y="125" width="250" height="250"></rect>
        <path fill="rgb(163,219,195)" stroke="none" paint-order="stroke fill markers" d=" M 56.1 490 A 7 7 0 1 1 56.099996500000294 489.99300000116665 L 56.1 489.9 A 7 7 0 1 1 56.099996500000294 489.8930000011666 Z" fill-opacity="0.6"></path>
        <rect fill="#FFFFFF" stroke="none" x="125" y="125" width="250" height="250"></rect>
        <path fill="rgb(255,245,157)" stroke="none" paint-order="stroke fill markers" d=" M 24.2 2 A 1 1 0 1 1 24.19999950000004 1.9990000001666661 L 24.2 2.1 A 1 1 0 1 1 24.19999950000004 2.099000000166666 Z" fill-opacity="0.6"></path>
        <rect fill="#FFFFFF" stroke="none" x="125" y="125" width="250" height="250"></rect>
        <path fill="rgb(112,106,175)" stroke="none" paint-order="stroke fill markers" d=" M 68.8 118 A 4 4 0 1 1 68.79999800000016 117.99600000066667 L 68.8 118.2 A 4 4 0 1 1 68.79999800000016 118.19600000066667 Z" fill-opacity="0.6"></path>
        <rect fill="#FFFFFF" stroke="none" x="125" y="125" width="250" height="250"></rect>
        <path fill="rgb(163,219,195)" stroke="none" paint-order="stroke fill markers" d=" M 499.8 213 A 7 7 0 1 1 499.7999965000003 212.99300000116665 L 499.8 213.1 A 7 7 0 1 1 499.7999965000003 213.09300000116664 Z" fill-opacity="0.6"></path>
        <rect fill="#FFFFFF" stroke="none" x="125" y="125" width="250" height="250"></rect>
        <path fill="rgb(112,106,175)" stroke="none" paint-order="stroke fill markers" d=" M 456.2 393 A 10 10 0 1 1 456.1999950000004 392.99000000166666 L 456.2 393.1 A 10 10 0 1 1 456.1999950000004 393.0900000016667 Z" fill-opacity="0.6"></path>
        <rect fill="#FFFFFF" stroke="none" x="125" y="125" width="250" height="250"></rect>
        <path fill="rgb(255,99,113)" stroke="none" paint-order="stroke fill markers" d=" M 415.1 411 A 1 1 0 1 1 415.0999995000001 410.9990000001667 L 415.1 410.9 A 1 1 0 1 1 415.0999995000001 410.89900000016667 Z" fill-opacity="0.6"></path>
        <rect fill="#FFFFFF" stroke="none" x="125" y="125" width="250" height="250"></rect>
        <path fill="rgb(163,219,195)" stroke="none" paint-order="stroke fill markers" d=" M 172.2 16 A 5 5 0 1 1 172.1999975000002 15.99500000083333 L 172.2 16.1 A 5 5 0 1 1 172.1999975000002 16.09500000083333 Z" fill-opacity="0.6"></path>
        <rect fill="#FFFFFF" stroke="none" x="125" y="125" width="250" height="250"></rect>
        <path fill="rgb(145,181,216)" stroke="none" paint-order="stroke fill markers" d=" M 484.8 310 A 2 2 0 1 1 484.79999900000007 309.9980000003333 L 484.8 309.9 A 2 2 0 1 1 484.79999900000007 309.8980000003333 Z" fill-opacity="0.6"></path>
        <rect fill="#FFFFFF" stroke="none" x="125" y="125" width="250" height="250"></rect>
        <path fill="rgb(255,245,157)" stroke="none" paint-order="stroke fill markers" d=" M 53.1 83 A 1 1 0 1 1 53.099999500000045 82.99900000016666 L 53.1 82.9 A 1 1 0 1 1 53.099999500000045 82.89900000016667 Z" fill-opacity="0.6"></path>
        <rect fill="#FFFFFF" stroke="none" x="125" y="125" width="250" height="250"></rect>
        <path fill="rgb(145,181,216)" stroke="none" paint-order="stroke fill markers" d=" M 471.2 3 A 7 7 0 1 1 471.1999965000003 2.9930000011666626 L 471.2 2.9 A 7 7 0 1 1 471.1999965000003 2.8930000011666626 Z" fill-opacity="0.6"></path>
        <rect fill="#FFFFFF" stroke="none" x="125" y="125" width="250" height="250"></rect>
        <path fill="rgb(255,245,157)" stroke="none" paint-order="stroke fill markers" d=" M 506.8 459 A 8 8 0 1 1 506.79999600000036 458.99200000133334 L 506.8 459.1 A 8 8 0 1 1 506.79999600000036 459.09200000133336 Z" fill-opacity="0.6"></path>
        <rect fill="#FFFFFF" stroke="none" x="125" y="125" width="250" height="250"></rect>
        <path fill="rgb(255,245,157)" stroke="none" paint-order="stroke fill markers" d=" M 433.9 87 A 9 9 0 1 1 433.89999550000033 86.9910000015 L 433.9 87.1 A 9 9 0 1 1 433.89999550000033 87.09100000149999 Z" fill-opacity="0.6"></path>
        <rect fill="#FFFFFF" stroke="none" x="125" y="125" width="250" height="250"></rect>
        <path fill="rgb(255,245,157)" stroke="none" paint-order="stroke fill markers" d=" M 218.9 75 A 10 10 0 1 1 218.89999500000042 74.99000000166666 L 218.9 74.8 A 10 10 0 1 1 218.89999500000042 74.79000000166666 Z" fill-opacity="0.6"></path>
        <rect fill="#FFFFFF" stroke="none" x="125" y="125" width="250" height="250"></rect>
        <path fill="rgb(145,181,216)" stroke="none" paint-order="stroke fill markers" d=" M 289.9 161 A 5 5 0 1 1 289.8999975000002 160.99500000083333 L 289.9 160.8 A 5 5 0 1 1 289.8999975000002 160.79500000083334 Z" fill-opacity="0.6"></path>
        <rect fill="#FFFFFF" stroke="none" x="125" y="125" width="250" height="250"></rect>
        <path fill="rgb(255,99,113)" stroke="none" paint-order="stroke fill markers" d=" M 322.8 145 A 7 7 0 1 1 322.7999965000003 144.99300000116665 L 322.8 144.8 A 7 7 0 1 1 322.7999965000003 144.79300000116666 Z" fill-opacity="0.6"></path>
        <rect fill="#FFFFFF" stroke="none" x="125" y="125" width="250" height="250"></rect>
        <path fill="rgb(255,99,113)" stroke="none" paint-order="stroke fill markers" d=" M 265.2 365 A 6 6 0 1 1 265.1999970000002 364.994000001 L 265.2 365.1 A 6 6 0 1 1 265.1999970000002 365.09400000100004 Z" fill-opacity="0.6"></path>
        <rect fill="#FFFFFF" stroke="none" x="125" y="125" width="250" height="250"></rect>
        <path fill="rgb(112,106,175)" stroke="none" paint-order="stroke fill markers" d=" M 102.8 81 A 10 10 0 1 1 102.79999500000042 80.99000000166666 L 102.8 80.9 A 10 10 0 1 1 102.79999500000042 80.89000000166666 Z" fill-opacity="0.6"></path>
        <rect fill="#FFFFFF" stroke="none" x="125" y="125" width="250" height="250"></rect>
        <path fill="rgb(163,219,195)" stroke="none" paint-order="stroke fill markers" d=" M 435.1 226 A 3 3 0 1 1 435.09999850000014 225.9970000005 L 435.1 226.1 A 3 3 0 1 1 435.09999850000014 226.0970000005 Z" fill-opacity="0.6"></path>
        <rect fill="#FFFFFF" stroke="none" x="125" y="125" width="250" height="250"></rect>
        <path fill="rgb(255,99,113)" stroke="none" paint-order="stroke fill markers" d=" M 29.2 396 A 5 5 0 1 1 29.199997500000208 395.99500000083333 L 29.2 395.8 A 5 5 0 1 1 29.199997500000208 395.79500000083334 Z" fill-opacity="0.6"></path>
        <rect fill="#FFFFFF" stroke="none" x="125" y="125" width="250" height="250"></rect>
        <path fill="rgb(112,106,175)" stroke="none" paint-order="stroke fill markers" d=" M 215.2 168 A 6 6 0 1 1 215.19999700000025 167.994000001 L 215.2 167.9 A 6 6 0 1 1 215.19999700000025 167.894000001 Z" fill-opacity="0.6"></path>
        <rect fill="#FFFFFF" stroke="none" x="125" y="125" width="250" height="250"></rect>
        <path fill="rgb(163,219,195)" stroke="none" paint-order="stroke fill markers" d=" M 391.2 358 A 6 6 0 1 1 391.1999970000002 357.994000001 L 391.2 358.2 A 6 6 0 1 1 391.1999970000002 358.194000001 Z" fill-opacity="0.6"></path>
        <rect fill="#FFFFFF" stroke="none" x="125" y="125" width="250" height="250"></rect>
        <path fill="rgb(163,219,195)" stroke="none" paint-order="stroke fill markers" d=" M 139.2 405 A 6 6 0 1 1 139.19999700000025 404.994000001 L 139.2 404.8 A 6 6 0 1 1 139.19999700000025 404.79400000100003 Z" fill-opacity="0.6"></path>
        <rect fill="#FFFFFF" stroke="none" x="125" y="125" width="250" height="250"></rect>
        <path fill="rgb(112,106,175)" stroke="none" paint-order="stroke fill markers" d=" M 260.2 282 A 8 8 0 1 1 260.19999600000034 281.99200000133334 L 260.2 281.9 A 8 8 0 1 1 260.19999600000034 281.8920000013333 Z" fill-opacity="0.6"></path>
        <rect fill="#FFFFFF" stroke="none" x="125" y="125" width="250" height="250"></rect>
        <path fill="rgb(255,99,113)" stroke="none" paint-order="stroke fill markers" d=" M 446.8 58 A 10 10 0 1 1 446.7999950000004 57.99000000166666 L 446.8 58.2 A 10 10 0 1 1 446.7999950000004 58.19000000166666 Z" fill-opacity="0.6"></path>
        <rect fill="#FFFFFF" stroke="none" x="125" y="125" width="250" height="250"></rect>
        <path fill="rgb(163,219,195)" stroke="none" paint-order="stroke fill markers" d=" M 17.9 3 A 6 6 0 1 1 17.89999700000025 2.9940000009999963 L 17.9 2.8 A 6 6 0 1 1 17.89999700000025 2.794000000999996 Z" fill-opacity="0.6"></path>
        <rect fill="#FFFFFF" stroke="none" x="125" y="125" width="250" height="250"></rect>
        <path fill="rgb(145,181,216)" stroke="none" paint-order="stroke fill markers" d=" M 485.2 479 A 6 6 0 1 1 485.1999970000002 478.994000001 L 485.2 478.9 A 6 6 0 1 1 485.1999970000002 478.894000001 Z" fill-opacity="0.6"></path>
        <rect fill="#FFFFFF" stroke="none" x="125" y="125" width="250" height="250"></rect>
        <path fill="rgb(163,219,195)" stroke="none" paint-order="stroke fill markers" d=" M 58.2 43 A 6 6 0 1 1 58.19999700000025 42.994000000999996 L 58.2 43.2 A 6 6 0 1 1 58.19999700000025 43.194000001 Z" fill-opacity="0.6"></path>
        <rect fill="#FFFFFF" stroke="none" x="125" y="125" width="250" height="250"></rect>
        <path fill="rgb(163,219,195)" stroke="none" paint-order="stroke fill markers" d=" M 253.9 16 A 1 1 0 1 1 253.89999950000004 15.999000000166665 L 253.9 16.2 A 1 1 0 1 1 253.89999950000004 16.199000000166667 Z" fill-opacity="0.6"></path>
        <rect fill="#FFFFFF" stroke="none" x="125" y="125" width="250" height="250"></rect>
        <path fill="rgb(163,219,195)" stroke="none" paint-order="stroke fill markers" d=" M 50.2 337 A 3 3 0 1 1 50.19999850000013 336.9970000005 L 50.2 336.8 A 3 3 0 1 1 50.19999850000013 336.7970000005 Z" fill-opacity="0.6"></path>
        <rect fill="#FFFFFF" stroke="none" x="125" y="125" width="250" height="250"></rect>
        <path fill="rgb(255,245,157)" stroke="none" paint-order="stroke fill markers" d=" M 346.1 242 A 4 4 0 1 1 346.0999980000002 241.99600000066667 L 346.1 241.8 A 4 4 0 1 1 346.0999980000002 241.79600000066668 Z" fill-opacity="0.6"></path>
        <rect fill="#FFFFFF" stroke="none" x="125" y="125" width="250" height="250"></rect>
        <path fill="rgb(163,219,195)" stroke="none" paint-order="stroke fill markers" d=" M 306.9 378 A 4 4 0 1 1 306.89999800000015 377.99600000066664 L 306.9 378.1 A 4 4 0 1 1 306.89999800000015 378.09600000066666 Z" fill-opacity="0.6"></path>
        <rect fill="#FFFFFF" stroke="none" x="125" y="125" width="250" height="250"></rect>
        <path fill="rgb(145,181,216)" stroke="none" paint-order="stroke fill markers" d=" M 472.9 205 A 1 1 0 1 1 472.89999950000004 204.99900000016666 L 472.9 205.1 A 1 1 0 1 1 472.89999950000004 205.09900000016665 Z" fill-opacity="0.6"></path>
        <rect fill="#FFFFFF" stroke="none" x="125" y="125" width="250" height="250"></rect>
        <path fill="rgb(255,245,157)" stroke="none" paint-order="stroke fill markers" d=" M 407.9 500 A 9 9 0 1 1 407.89999550000033 499.99100000149997 L 407.9 499.9 A 9 9 0 1 1 407.89999550000033 499.89100000149995 Z" fill-opacity="0.6"></path>
        <rect fill="#FFFFFF" stroke="none" x="125" y="125" width="250" height="250"></rect>
        <path fill="rgb(163,219,195)" stroke="none" paint-order="stroke fill markers" d=" M 263.2 287 A 9 9 0 1 1 263.19999550000034 286.99100000149997 L 263.2 287.2 A 9 9 0 1 1 263.19999550000034 287.19100000149996 Z" fill-opacity="0.6"></path>
        <rect fill="#FFFFFF" stroke="none" x="125" y="125" width="250" height="250"></rect>
        <path fill="rgb(255,99,113)" stroke="none" paint-order="stroke fill markers" d=" M 502.2 390 A 8 8 0 1 1 502.19999600000034 389.99200000133334 L 502.2 389.9 A 8 8 0 1 1 502.19999600000034 389.8920000013333 Z" fill-opacity="0.6"></path>
        <rect fill="#FFFFFF" stroke="none" x="125" y="125" width="250" height="250"></rect>
        <path fill="rgb(112,106,175)" stroke="none" paint-order="stroke fill markers" d=" M 335.1 46 A 1 1 0 1 1 335.0999995000001 45.99900000016667 L 335.1 45.9 A 1 1 0 1 1 335.0999995000001 45.899000000166666 Z" fill-opacity="0.6"></path>
        <rect fill="#FFFFFF" stroke="none" x="125" y="125" width="250" height="250"></rect>
        <path fill="rgb(163,219,195)" stroke="none" paint-order="stroke fill markers" d=" M 22.2 322 A 10 10 0 1 1 22.199995000000417 321.99000000166666 L 22.2 322.2 A 10 10 0 1 1 22.199995000000417 322.19000000166665 Z" fill-opacity="0.6"></path>
        <rect fill="#FFFFFF" stroke="none" x="125" y="125" width="250" height="250"></rect>
        <path fill="rgb(255,245,157)" stroke="none" paint-order="stroke fill markers" d=" M 199.9 343 A 2 2 0 1 1 199.8999990000001 342.9980000003333 L 199.9 343.2 A 2 2 0 1 1 199.8999990000001 343.1980000003333 Z" fill-opacity="0.6"></path>
        <rect fill="#FFFFFF" stroke="none" x="125" y="125" width="250" height="250"></rect>
        <path fill="rgb(112,106,175)" stroke="none" paint-order="stroke fill markers" d=" M 468.8 355 A 4 4 0 1 1 468.7999980000002 354.99600000066664 L 468.8 355.2 A 4 4 0 1 1 468.7999980000002 355.19600000066663 Z" fill-opacity="0.6"></path>
        <rect fill="#FFFFFF" stroke="none" x="125" y="125" width="250" height="250"></rect>
        <path fill="rgb(163,219,195)" stroke="none" paint-order="stroke fill markers" d=" M 441.8 384 A 8 8 0 1 1 441.79999600000036 383.99200000133334 L 441.8 384.2 A 8 8 0 1 1 441.79999600000036 384.1920000013333 Z" fill-opacity="0.6"></path>
        <rect fill="#FFFFFF" stroke="none" x="125" y="125" width="250" height="250"></rect>
        <path fill="rgb(145,181,216)" stroke="none" paint-order="stroke fill markers" d=" M 65.1 267 A 7 7 0 1 1 65.09999650000029 266.99300000116665 L 65.1 267.1 A 7 7 0 1 1 65.09999650000029 267.0930000011667 Z" fill-opacity="0.6"></path>
        <rect fill="#FFFFFF" stroke="none" x="125" y="125" width="250" height="250"></rect>
    </g>
</svg>