<svg width="176" height="106" xmlns="http://www.w3.org/2000/svg">
    <path
        d="M144.959 80.506c-.896.19-1.782.508-2.3.816-.248.15-.537.329-.646.389-.637.358-1.861 1.582-2.22 2.219-.06.11-.228.398-.378.637-.567.916-.975 2.548-.975 3.851 0 1.304.408 2.936.975 3.852.15.239.319.527.379.637.358.637 1.582 1.86 2.219 2.22.11.059.398.228.637.377.915.568 2.548.976 3.851.976 1.304 0 2.936-.408 3.852-.976.239-.149.527-.318.637-.378.637-.358 1.86-1.582 2.22-2.22.059-.109.228-.397.377-.636.568-.916.976-2.548.976-3.852 0-1.303-.408-2.935-.976-3.851-.149-.239-.318-.528-.378-.637-.358-.637-1.582-1.861-2.22-2.22-.109-.06-.397-.228-.636-.378-.518-.318-1.662-.716-2.498-.865-.766-.14-2.14-.12-2.896.04zm3.135 2.08c.945.309 1.293.478 2.07 1.045 1.433 1.035 2.408 2.986 2.408 4.787 0 2.21-1.383 4.42-3.384 5.414a5.884 5.884 0 0 1-5.374 0c-2-.995-3.383-3.204-3.383-5.414 0-2.249 1.423-4.488 3.483-5.453 1.433-.677 2.856-.807 4.18-.379z M143.267 86.816c-.329.16-.717.398-.856.528-.458.408-1.025 1.174-.926 1.263.19.18 1.453 1.006 1.533 1.006.05 0 .17-.1.269-.23.388-.487.876-.766 1.333-.766.389 0 .548.08 1.284.627 1.185.876 1.413.986 2.349 1.035.736.05.856.03 1.443-.248.597-.27 1.125-.727 1.692-1.443l.219-.28-.339-.288c-.189-.159-.378-.288-.427-.298-.05 0-.24-.11-.418-.25-.399-.308-.478-.308-.707-.019-.388.488-.876.766-1.334.766-.388 0-.547-.08-1.284-.627-1.204-.895-1.403-.985-2.388-1.035-.786-.04-.896-.02-1.443.26z M84.987 1.486c-.02.02-.259.06-.537.09-.856.09-2.09.577-3.086 1.204-.418.269-1.373 1.065-1.482 1.234-.05.08-.19.239-.319.358-.687.637-1.612 2.667-1.821 3.991-.09.597-.08 2.06.03 2.717.09.567.577 1.93.766 2.19.11.129.19.278.19.328 0 .17 1.064 1.513 1.581 2 1.035.966 2.817 1.822 4.26 2.05.597.09 2 .08 2.707-.03.796-.129 2.03-.626 2.946-1.204.418-.268 1.373-1.064 1.483-1.234.05-.08.189-.239.318-.358.687-.637 1.612-2.667 1.821-3.99.09-.598.08-2.06-.03-2.718-.089-.567-.577-1.93-.766-2.19-.11-.129-.189-.278-.189-.328 0-.169-1.065-1.512-1.582-1.99-.916-.866-2.468-1.682-3.792-1.98-.438-.11-2.428-.22-2.498-.14zm2.289 2.29c.508.099 2.07.955 2.508 1.363 1.294 1.224 1.97 2.687 1.99 4.309.01 1.234-.06 1.542-.617 2.687-.786 1.642-1.93 2.627-3.712 3.234-.577.2-2.259.299-2.647.16-.08-.03-.279-.08-.438-.1-.508-.09-2.09-.935-2.558-1.373-1.293-1.224-1.97-2.687-1.99-4.31 0-.497.03-1.074.06-1.293.119-.637.995-2.34 1.463-2.837 1.612-1.711 3.592-2.329 5.941-1.84z M82.857 7.776c-.796.328-2.14 1.552-2.14 1.96 0 .14.498.528 1.135.896l.498.289.199-.239c.856-.995 1.672-1.055 2.647-.2.19.17.667.469 1.045.678 1.224.647 2.319.537 3.463-.339.568-.438 1.165-1.134 1.165-1.363 0-.14-.498-.528-1.135-.896l-.497-.288-.2.238c-.855.996-1.671 1.055-2.647.2-.189-.17-.657-.468-1.045-.677-.587-.309-.806-.369-1.393-.388-.458-.02-.826.03-1.095.129zM71.044 9.945c-5.583.916-10.25 2.18-15.008 4.08-4.389 1.752-10.141 4.728-10.51 5.435-.278.547-.109 1.095.429 1.373.418.21.746.11 2.15-.687 6.946-3.95 13.843-6.458 21.566-7.852.905-.169 2.02-.348 2.488-.418.846-.11 1.423-.358 1.532-.647.15-.398.06-.895-.209-1.154-.398-.378-.796-.398-2.438-.13zM96.97 9.846c-.349.15-.628.587-.628.985 0 .14.13.408.299.587.289.339.299.339 1.96.558 8.45 1.124 16.203 3.314 23.746 6.717 1.901.856 2.31.936 2.707.498.438-.478.399-1.105-.109-1.543-.229-.189-3.254-1.522-5.414-2.378-6.35-2.528-13.605-4.419-20.203-5.275a57.676 57.676 0 0 1-1.841-.249c-.11-.02-.338.02-.518.1zM135.255 17.629c-.686.07-2.478.587-2.597.756-.03.05-.09.08-.13.07-.109-.03-.656.219-.656.298 0 .05-.21.2-.468.358-.776.448-1.762 1.513-2.399 2.598-.378.637-.875 2.09-.975 2.816-.189 1.414 0 2.936.508 4.16.12.319.278.717.348.886.07.18.16.329.2.329.049 0 .198.209.357.467.697 1.215 2.31 2.429 3.991 3.006 1.821.617 3.483.607 5.414-.06.299-.1.567-.219.597-.259.03-.05.09-.08.13-.07.11.03.656-.218.656-.298 0-.05.21-.199.478-.358.767-.448 1.752-1.513 2.389-2.598.378-.637.875-2.09.975-2.816.19-1.413 0-2.936-.508-4.16-.119-.319-.278-.717-.348-.896-.07-.169-.16-.318-.199-.318-.05 0-.199-.21-.358-.478-.448-.766-1.513-1.752-2.598-2.388-.607-.359-2.08-.876-2.717-.956-.696-.09-1.701-.13-2.09-.09zm2.837 2.418c.856.279 2.06 1.115 2.567 1.781a7.112 7.112 0 0 1 1.165 2.29c.288.955.249 2.577-.1 3.642-.248.776-1.104 2.06-1.622 2.448-1.005.747-1.453.985-2.438 1.284-.627.19-.896.219-1.841.18-1.443-.06-2.25-.32-3.265-1.046-1.114-.796-1.84-1.841-2.279-3.304-.288-.955-.248-2.578.1-3.642.249-.777 1.105-2.06 1.622-2.449.965-.726 1.364-.935 2.309-1.254.607-.199.846-.229 1.89-.199.907.03 1.364.09 1.892.269z M133.016 22.455c-.786.15-1.144.289-1.144.428 0 .18.497 1.553.627 1.712.05.07.129.1.179.07.05-.02.348-.07.677-.1.507-.05.656-.02.955.16.428.268.488.368.746 1.343.448 1.672 1.185 2.518 2.469 2.846.676.17 1.114.17 1.95-.01.846-.179.846-.169.518-1.114-.309-.876-.428-1.105-.568-1.015-.05.02-.358.07-.686.1-.538.049-.647.029-.996-.2-.328-.219-.418-.358-.597-.915-.11-.359-.199-.717-.199-.777 0-.07-.159-.448-.358-.846-.279-.527-.488-.796-.856-1.065-.756-.567-1.811-.806-2.717-.617zM35.734 19.4c-.398.07-.826.18-.946.239-.11.05-.448.199-.746.318-2.787 1.145-4.797 4.14-4.867 7.256-.02.786.21 2.478.368 2.726a.9.9 0 0 1 .08.21c.03.208.647 1.383.886 1.701.14.18.249.359.249.408.01.14.955 1.085 1.622 1.613 1.741 1.373 4.15 1.96 6.429 1.562.517-.09.995-.199 1.045-.239.06-.04.378-.189.706-.318 2.807-1.115 4.847-4.13 4.917-7.265.02-.787-.21-2.478-.368-2.727-.03-.06-.07-.16-.08-.21-.03-.208-.647-1.383-.886-1.701-.14-.18-.249-.358-.249-.408-.01-.14-.955-1.085-1.622-1.612-1.731-1.364-4.31-1.98-6.538-1.553zm2.856 2.2c.627.139 1.383.417 1.722.626.905.558 1.91 1.623 2.368 2.498.508.956.727 2.847.458 3.991-.14.607-.617 1.752-.856 2.03-.806.996-1.642 1.732-2.368 2.06-.19.09-.727.26-1.195.379-1.582.408-3.553.06-4.767-.846-.756-.567-1.602-1.523-1.98-2.24-.508-.955-.727-2.846-.458-3.99.14-.607.617-1.752.856-2.04.478-.598 1.194-1.304 1.572-1.573.667-.458.866-.547 1.792-.806a5.8 5.8 0 0 1 2.856-.09z M40.152 25.49c-.497.817-.676 1.026-.985 1.125-.388.13-.945.02-1.751-.338-.309-.13-.727-.269-.946-.299-.209-.03-.507-.09-.647-.119-.637-.13-2.05.537-2.478 1.164-.08.12-.209.27-.279.349-.189.199-.617 1.154-.617 1.403 0 .219.15.299 1.344.687.557.179.508.209 1.065-.687.478-.766 1.115-.836 2.368-.229.28.13.717.269.976.309.259.03.547.08.647.11.517.158 2.07-.578 2.458-1.155.08-.12.209-.279.279-.359.189-.199.617-1.154.617-1.403 0-.219-.12-.279-1.294-.677-.577-.189-.567-.189-.757.12zM141.953 31.691c-.348.14-.647.687-.587 1.065.03.189.328.706.727 1.244a37.078 37.078 0 0 1 6.31 13.754c.248 1.104.686 3.602.686 3.93 0 .08-.687.11-2.14.11-2.13 0-2.14 0-2.289.24-.09.139-.13.308-.08.417.1.269 5.285 6.33 5.564 6.509.209.13.259.12.488-.05.418-.328 5.423-6.25 5.493-6.499a.478.478 0 0 0-.12-.418c-.168-.189-.318-.199-2.487-.199h-2.32l-.069-.676a41.37 41.37 0 0 0-.308-2.01c-1.006-5.454-2.986-10.351-6.121-15.038-1.224-1.832-1.712-2.369-2.18-2.429-.189-.03-.447 0-.567.05zM28.568 37.334c-.289.15-.448.378-.916 1.274-2.766 5.354-4.548 12.758-4.558 18.909 0 1.781.05 1.95.657 2.2.289.119.388.119.667.01.687-.3.697-.349.776-2.738.04-1.184.13-2.607.19-3.154.517-4.857 1.81-9.365 3.98-13.963.786-1.662.806-1.782.319-2.31-.349-.377-.677-.447-1.115-.228zM131.384 68.862c-.617.08-1.174.18-1.234.24-.06.059-.19.109-.289.109-.1 0-.179.04-.179.1 0 .049-.06.099-.13.099-.079 0-.268.11-.427.249-.16.139-.358.278-.438.298-.18.07-.995 1.075-.995 1.234 0 .06-.04.11-.08.11-.11 0-.418.656-.418.895 0 .1-.06.2-.12.22-.099.04-.129 3.035-.129 14.57 0 13.624.01 14.54.17 14.818.1.16.179.358.179.418 0 .07.05.13.1.13.059 0 .099.06.099.119 0 .07.159.308.348.527.19.22.348.428.348.468 0 .05.07.08.15.08.08 0 .149.04.149.08 0 .129 1.224.716 1.473.716.12 0 .219.04.219.1 0 .07 6.608.099 19.635.099 21.865 0 20.96.03 21.995-.637.477-.309.736-.557 1.264-1.214.209-.259.497-.886.497-1.065 0-.09.05-.19.1-.219.06-.04.1-1.344.1-3.593V94.29h.298c.597 0 1.214-.468 1.572-1.194.15-.309.17-.756.17-3.931 0-3.772-.01-3.862-.468-4.429-.269-.328-.836-.687-1.194-.746l-.379-.07v-3.473c0-1.901-.04-3.484-.09-3.513-.049-.03-.119-.22-.149-.408-.04-.19-.109-.349-.159-.349-.06 0-.1-.09-.1-.199 0-.11-.04-.199-.099-.199-.05 0-.1-.06-.1-.13 0-.149-1.034-1.164-1.184-1.164-.06 0-.11-.04-.11-.1 0-.049-.158-.119-.347-.158-.19-.03-.349-.1-.349-.15 0-.05-.11-.09-.239-.09-.139 0-.278-.049-.308-.099-.04-.06-.627-.1-1.453-.1h-1.384v-1.243c0-1.165-.139-2.04-.318-2.04-.05 0-.08-.04-.08-.1 0-.219-.567-.876-.985-1.135-.896-.557-.826-.547-18.073-.547-12.241.01-15.973.04-16.859.14zm33.718 2.598c.18.229.209.408.209 1.294v1.035h-16.003c-14.928 0-16.013-.01-16.242-.17-.528-.358-.796-.766-.796-1.184 0-.278.418-.975.667-1.124.119-.07 5.294-.1 16.072-.11h15.894l.199.259zm-35.032 2.08c.05.05.11.219.15.378.07.289.179.438.776 1.105.308.348.876.706 1.622 1.025.11.04 8.599.1 18.86.13 16.35.039 18.69.069 18.909.198.398.23.786.657.855.936.03.14.1.259.15.259.05 0 .09 1.383.09 3.184v3.175l-4.45.03c-3.443.02-4.448.06-4.488.15-.02.069-.08.128-.14.128-.049 0-.278.18-.497.409l-.398.408-.14 1.204c-.138 1.164-.119 4.916.02 6.31.06.616.34 1.064.887 1.443l.398.268 4.408.01h4.4v3.115c0 3.493.01 3.464-.727 4.2l-.398.398-19.925.03-19.934.02-.438-.329c-.229-.179-.467-.427-.527-.547-.05-.12-.13-.219-.17-.219-.119 0-.099-28.145.02-28.214.06-.03.1-.15.1-.26 0-.099.04-.188.08-.188.05 0 .15-.12.229-.279.129-.259.139-.219.169.577.02.458.07.886.11.946zm43.402 15.575v2.886h-9.753V86.23h9.753v2.886z"/>
</svg>