<svg width="176" height="88" xmlns="http://www.w3.org/2000/svg">
    <path
        d="M82.284.704c-.808.12-1.157.728-.808 1.396.24.469.558.518 2.831.449 4.576-.15 10.687.498 15.442 1.615 1.396.329 1.556.319 1.984-.11.31-.309.35-.399.29-.678-.12-.598-.4-.748-2.014-1.116-2.941-.668-5.673-1.097-8.913-1.396-1.794-.17-8.025-.28-8.812-.16zM62.734 4.184a153.6 153.6 0 0 1-1.944.688 70.658 70.658 0 0 0-13.667 6.619c-.688.439-1.316.897-1.386 1.027-.18.339-.05.907.269 1.156.469.37.768.28 2.492-.797a71.694 71.694 0 0 1 14.864-6.929c.688-.22.868-.329 1.027-.588.28-.449.24-.728-.15-1.117-.398-.398-.558-.408-1.505-.06zM118.093 9.846c-.509.27-.638.907-.28 1.366.11.14.658.528 1.217.877 3.509 2.134 7.945 5.543 10.796 8.284l.897.868-1.585 1.585c-1.415 1.425-1.575 1.625-1.515 1.854.04.15.15.28.29.31.557.129 8.313.717 8.453.637.09-.05.19-.14.21-.21.03-.069-.11-1.973-.3-4.216-.349-4.177-.408-4.536-.797-4.536-.09 0-.897.728-1.785 1.615l-1.615 1.605-1.017-.967c-3.28-3.12-7.397-6.27-11.245-8.603-1.086-.658-1.286-.718-1.724-.469zM32.209 24.64c-.758.31-4.117 5.244-5.742 8.434-1.615 3.19-3.56 8.534-3.41 9.381.12.678.967.947 1.525.479.23-.19.36-.479.668-1.516a43.597 43.597 0 0 1 7.647-14.774c.448-.568.578-.807.578-1.077 0-.468-.16-.717-.548-.887-.39-.16-.42-.16-.718-.04zM3.268 55.255c-.687.14-1.425.539-1.993 1.117-.618.608-.947 1.266-1.087 2.163-.14.828-.15 24.096-.01 25.013a4.085 4.085 0 0 0 2.293 3.09l.548.26h39.976l.549-.26a4.06 4.06 0 0 0 2.302-3.15c.06-.429.08-5.373.06-12.9-.02-10.996-.04-12.252-.19-12.66-.488-1.387-1.664-2.423-3.06-2.683-.668-.13-38.74-.12-39.388.01zm39.09 1.894c.338.07.637.23.887.45.757.687.697-.4.697 13.437 0 10.996-.02 12.472-.15 12.8-.209.49-.518.808-.996 1.028-.379.18-1.147.189-19.789.189-18.642 0-19.41-.01-19.788-.19a1.865 1.865 0 0 1-.997-1.026c-.13-.33-.15-1.805-.15-12.79 0-12.023.01-12.432.19-12.79.279-.55.737-.928 1.276-1.078.648-.17 38.012-.199 38.82-.03z M23.536 62.224a2.952 2.952 0 0 0-1.595.927c-.828.897-.928 1.386-.928 4.576V70h7.976v-7.876l-2.512.01c-1.386.01-2.712.05-2.941.09zm4.456 3.888v2.99H22.01V66.93c0-1.884.03-2.213.19-2.572.21-.458.807-.997 1.256-1.126.17-.05 1.256-.1 2.422-.1l2.114-.01v2.99z M24.004 66.062v.947h1.894v-1.894h-1.894v.947zM30.983 66.052V70h7.995l-.04-2.672c-.05-3.14-.12-3.44-.987-4.257-.927-.867-1.037-.897-4.197-.927l-2.771-.03v3.938zm5.632-2.801c.528.239.927.628 1.157 1.116.159.35.189.668.189 2.562v2.173h-5.982v-6.1l2.124.04c1.754.03 2.183.069 2.512.209z M33.973 66.062v.947h1.894v-1.894h-1.894v.947zM21.033 74.805l.03 2.721.29.628a3.093 3.093 0 0 0 1.714 1.615c.499.18.778.2 3.23.2h2.692v-7.876h-7.996l.04 2.712zm6.959 1.226v3.04h-2.124c-2.123 0-2.133 0-2.671-.279a2.232 2.232 0 0 1-.838-.697l-.299-.439-.03-2.333L22 72.99h5.991v3.041z M24.004 76.031v.947h1.894v-1.894h-1.894v.947zM30.983 73.539v1.445h.887l.03-.977.03-.967 1.724-.03 1.715-.02v-.897h-4.386v1.446zM36.964 72.542v.448h.997v.997h.897v-1.894h-1.894v.449zM33.973 76.031v.947h1.894v-1.894h-1.894v.947zM37.941 76.858c-.04.668-.09.848-.359 1.237-.21.309-.488.538-.837.717-.469.23-.628.26-1.645.26h-1.127v.897h1.197c.947 0 1.296-.04 1.724-.2 1.177-.438 1.904-1.485 2.024-2.92l.07-.768h-.997l-.05.777zM30.983 78.523v1.446h.897v-2.891h-.897v1.445z"/>
</svg>