<svg width="176" height="88" xmlns="http://www.w3.org/2000/svg">
    <path
        d="M136.027 34.819c-.429.1-1.196.389-1.695.638-1.665.807-2.771 1.914-3.599 3.589-.578 1.166-.757 1.844-.827 3.24-.04.957-.02 1.286.16 2.023.907 3.779 4.047 6.25 7.935 6.25 2.173 0 4.655-1.195 6.031-2.92.578-.728 1.316-2.163 1.545-3.01.09-.33.18-1.117.22-1.745.06-1.356-.14-2.413-.718-3.659-1.565-3.4-5.463-5.294-9.052-4.406zm3.52 1.844c1.973.578 3.578 2.183 4.216 4.177.28.897.3 2.492.03 3.39a6.399 6.399 0 0 1-4.197 4.266c-.897.28-2.492.3-3.39.03a6.399 6.399 0 0 1-4.266-4.197c-.28-.897-.3-2.492-.03-3.39a6.325 6.325 0 0 1 4.665-4.386c.768-.18 2.184-.13 2.971.11z M140.194 40.441c-.329 1.107-.897 1.446-2.123 1.256-1.615-.249-2.493-.08-3.29.638-.588.529-1.017 1.416-1.087 2.243l-.05.569.529.06c1.146.14 1.166.14 1.336-.479.329-1.107.897-1.446 2.123-1.256 1.615.25 2.492.08 3.29-.638.588-.528 1.017-1.416 1.086-2.243l.06-.568-.478-.06c-.26-.04-.648-.07-.858-.07-.378 0-.388.01-.538.548zM153.583 37.999c-1.167.2-2.752.947-3.689 1.734-3.11 2.622-3.778 7.198-1.545 10.528.16.25.518.708.787 1.017l.489.578h-8.903c-9.76 0-9.71 0-10.826.598-1.057.558-2.014 1.695-2.412 2.831-.2.579-.2.778-.2 14.775 0 15.92-.07 14.475.758 15.651.458.658 1.086 1.127 1.934 1.446.488.179 1.037.189 20.526.189 19.35 0 20.038-.01 20.586-.19a4.12 4.12 0 0 0 1.895-1.305c.867-1.097.877-1.137.947-5.115l.06-3.469.528-.18c.289-.099.658-.308.817-.458.588-.558.608-.738.578-4.655l-.03-3.55-.299-.428c-.329-.469-.787-.778-1.276-.877l-.319-.07-.06-3.48c-.04-2.332-.1-3.588-.179-3.788-.458-1.156-1.146-1.964-2.103-2.442-.569-.29-.768-.33-1.885-.409l-1.575-.09h-.329v-.976c0-2.084-.458-3.051-1.754-3.709-.479-.24-.548-.25-3.11-.28l-2.612-.039.658-.758c2.093-2.442 2.532-6.021 1.076-8.792-1.445-2.752-4.187-4.407-7.217-4.377-.469.01-1.057.05-1.316.09zm2.562 1.844a6.103 6.103 0 0 1 4.326 3.25c.917 1.864.917 3.699 0 5.563-.698 1.415-2.083 2.612-3.549 3.05-.628.19-3.07.2-3.778.01-1.456-.388-2.901-1.615-3.619-3.06-.678-1.376-.837-2.492-.558-3.948.349-1.844 1.585-3.49 3.25-4.307 1.366-.677 2.422-.827 3.928-.558zm.05 14.077l9.002.06.259.229c.25.209.259.269.299 1.425l.03 1.206h-32.45l-.339-.259c-.847-.648-.827-1.834.04-2.402.24-.16.628-.19 3.918-.23 6.38-.1 10.02-.1 19.24-.03zm-25.87 1.455c0 .778.04.997.259 1.465.319.678.967 1.356 1.685 1.745l.548.3 18.692.059c10.278.03 18.802.09 18.941.14.41.13.878.528 1.147.986l.249.43-.02 3.279-.03 3.28-4.396.05-4.397.05-.408.289c-.25.17-.499.468-.638.747-.22.449-.23.549-.26 3.918-.03 3.27-.02 3.48.17 3.838.18.35.468.668.947 1.037.16.11.957.15 4.586.19l4.396.05.02 3.24c.03 3.21.02 3.24-.2 3.688-.129.249-.418.578-.657.748-.409.289-.449.289-2.183.378-.967.04-9.91.07-19.859.05l-18.094-.03-.538-.339c-.419-.269-.588-.458-.778-.867l-.239-.518.03-13.897.03-13.887.23-.469c.179-.359.627-.877.757-.877 0 0 .01.419.01.927zm43.595 16.658c.02 2.044-.01 2.921-.09 3.011-.09.12-.987.14-5.025.14-4.386 0-4.924-.02-4.974-.16-.08-.22-.08-5.772.01-5.852.03-.04 2.313-.06 5.054-.05l4.995.03.03 2.881z M152.047 44.02c-.767.24-2.003 1.276-1.884 1.565.08.17 1.097.987 1.236.987.06 0 .25-.13.43-.289.468-.399.707-.508 1.155-.508.45 0 .828.229 1.625.987.3.279.828.648 1.177.817.578.29.708.31 1.356.27.468-.03.887-.13 1.196-.28.618-.299 1.585-1.196 1.495-1.395-.08-.18-1.086-.997-1.236-.997-.06 0-.25.13-.429.289-.907.787-1.525.698-2.671-.38-.898-.837-1.645-1.205-2.433-1.195-.339 0-.787.06-1.017.13zM145.478 63.51a8.08 8.08 0 0 0-6.45 5.752c-.32 1.126-.32 3.14 0 4.267a8.124 8.124 0 0 0 5.572 5.563c1.107.319 3.14.319 4.247 0a8.124 8.124 0 0 0 5.573-5.563c.319-1.127.319-3.14 0-4.267-.758-2.662-2.891-4.805-5.523-5.543-.817-.23-2.612-.339-3.42-.21zm3.07 2.014c1.376.398 2.592 1.355 3.43 2.691.618.977.867 1.904.867 3.18 0 1.266-.25 2.174-.847 3.16-.808 1.316-2.024 2.274-3.45 2.722-.957.31-2.691.31-3.648 0-1.905-.598-3.48-2.183-4.068-4.097-.319-1.027-.319-2.532-.01-3.56.708-2.292 2.752-4.037 5.055-4.306.837-.1 1.874-.02 2.671.21z M144.152 69.66c-.29.07-.668.21-.848.3-.388.2-1.465 1.306-1.465 1.495 0 .08.31.34.688.598l.688.449.329-.33c.558-.547.797-.677 1.296-.677.418 0 .558.07 1.415.698 1.077.797 1.585 1.007 2.363 1.017.887 0 1.615-.34 2.363-1.087.339-.349.628-.708.628-.787 0-.07-.31-.34-.688-.599l-.688-.448-.329.329c-.558.548-.797.678-1.296.678-.419 0-.558-.07-1.416-.698-1.315-.967-2.063-1.196-3.04-.937z"/>
</svg>