<svg width="176" height="106" xmlns="http://www.w3.org/2000/svg">
  <path
    d="M3.24 71.838c-1.364.338-2.488 1.383-2.886 2.707-.22.717-.22 25.517 0 26.234.398 1.324 1.403 2.289 2.826 2.727.687.209 39.142.209 39.829 0 1.423-.438 2.428-1.403 2.826-2.727.22-.697.22-25.507.01-26.214-.418-1.373-1.612-2.458-3.025-2.757-.797-.169-38.893-.14-39.58.03zm39.44 2.08c.388.15.856.577 1.095 1.005.16.289.17 1.195.2 12.4.019 8.31-.01 12.252-.08 12.59-.14.667-.448 1.085-1.006 1.393l-.467.25-19.437-.02-19.447-.03-.418-.29a1.962 1.962 0 0 1-.647-.746l-.228-.457v-12.39c0-11.515.01-12.411.169-12.7.239-.428.706-.856 1.095-1.005.467-.17 38.704-.17 39.171 0z M23.483 78.805c-1.035.278-1.822.975-2.19 1.95-.17.448-.189.796-.189 3.235v2.737h7.962v-8.061l-2.558.01c-1.702 0-2.717.049-3.025.129zm4.587 3.89v2.937H22.08l.04-2.12c.03-1.94.05-2.14.259-2.528.249-.478.836-.995 1.264-1.115.169-.05 1.224-.1 2.368-.1l2.06-.009v2.936z M23.99 82.696v1.045h2.09v-2.09h-2.09v1.045zM31.056 82.696v4.03h7.961V83.99c0-2.439-.019-2.787-.188-3.235-.24-.627-.727-1.234-1.234-1.562-.757-.478-1.125-.528-3.921-.528h-2.618v4.03zm5.374-2.836c.468.129 1.055.627 1.294 1.104.18.339.2.587.2 2.528v2.14H32.05V79.76h2.02c1.105 0 2.17.04 2.36.1z M33.942 82.696v1.045h2.09v-2.09h-2.09v1.045zM21.104 91.354c0 2.458.02 2.787.19 3.235a3.061 3.061 0 0 0 1.591 1.731l.657.309 2.767.03 2.757.03v-8.071h-7.962v2.736zm6.966 1.294v2.936h-2.09c-2.279 0-2.567-.05-3.115-.577-.646-.617-.706-.856-.746-3.185l-.04-2.11h5.991v2.936z M23.99 92.648v1.045h2.09v-2.09h-2.09v1.045zM30.957 90.16v1.543h1.094v-1.991h3.484V88.617H30.957v1.543zM36.928 89.165v.547h.995v.995H39.018v-2.09h-2.09v.548zM33.942 92.648v1.045h2.09v-2.09h-2.09v1.045zM37.983 93.305c-.07.816-.309 1.333-.796 1.761-.468.408-.906.518-2.12.518h-1.025V96.699l1.274-.04c1.104-.03 1.333-.07 1.83-.299 1.215-.557 1.872-1.622 1.872-3.015v-.747h-.965l-.07.707zM30.957 95.136v1.543h1.094v-3.085h-1.094v1.542z"/>
</svg>