<?xml version="1.0" encoding="UTF-8" standalone="no"?>
<svg
   xmlns:dc="http://purl.org/dc/elements/1.1/"
   xmlns:cc="http://creativecommons.org/ns#"
   xmlns:rdf="http://www.w3.org/1999/02/22-rdf-syntax-ns#"
   xmlns:svg="http://www.w3.org/2000/svg"
   xmlns="http://www.w3.org/2000/svg"
   viewBox="0 0 2119.52 522.40002"
   height="522.40002"
   width="2119.52"
   xml:space="preserve"
   id="svg2"
   version="1.1"><metadata
     id="metadata8"><rdf:RDF><cc:Work
         rdf:about=""><dc:format>image/svg+xml</dc:format><dc:type
           rdf:resource="http://purl.org/dc/dcmitype/StillImage" /></cc:Work></rdf:RDF></metadata><defs
     id="defs6" /><g
     transform="matrix(1.3333333,0,0,-1.3333333,0,522.4)"
     id="g10"><g
       transform="scale(0.1)"
       id="g12"><path
         id="path14"
         style="fill:#7a7e81;fill-opacity:1;fill-rule:nonzero;stroke:none"
         d="M 2723.65,3111.13 V 1193.31 h 472.68 v 1917.82 z m 515.3,530.79 c 0,-368.07 -557.91,-368.07 -557.91,0 0,368.07 557.91,368.07 557.91,0" /><path
         id="path16"
         style="fill:#7a7e81;fill-opacity:1;fill-rule:nonzero;stroke:none"
         d="m 3994.44,2196.77 c 0,-333.2 224.71,-530.79 499.8,-530.79 271.2,0 495.91,201.47 495.91,530.79 0,329.33 -224.71,538.54 -495.91,538.54 -275.09,0 -499.8,-205.34 -499.8,-538.54 z m 1127.44,1100.33 348.7,-263.46 -213.09,-271.21 c 147.23,-166.6 201.47,-356.44 201.47,-565.66 0,-236.33 -89.11,-569.54 -402.94,-712.89 317.7,-158.84 395.19,-387.44 395.19,-631.521 C 5451.21,325.441 5048.27,0 4494.24,0 3940.2,0 3525.64,337.059 3525.64,852.359 h 468.8 c 0,-247.961 228.58,-410.679 499.8,-410.679 271.2,0 484.29,147.211 484.29,410.679 0,263.461 -247.96,383.561 -484.29,383.561 -596.66,0 -968.6,364.19 -968.6,960.85 0,596.66 433.93,968.61 968.6,968.61 151.09,0 306.07,-19.38 437.8,-108.49 l 189.84,240.21" /><path
         id="path18"
         style="fill:#7a7e81;fill-opacity:1;fill-rule:nonzero;stroke:none"
         d="M 5761.12,3111.13 V 1193.31 h 472.67 v 1917.82 z m 515.29,530.79 c 0,-368.07 -557.91,-368.07 -557.91,0 0,368.07 557.91,368.07 557.91,0" /><path
         id="path20"
         style="fill:#7a7e81;fill-opacity:1;fill-rule:nonzero;stroke:none"
         d="M 7206.24,3905.38 V 1665.98 H 8601.03 V 1193.31 H 6694.82 v 2712.07 h 511.42" /><path
         id="path22"
         style="fill:#7a7e81;fill-opacity:1;fill-rule:nonzero;stroke:none"
         d="M 8926.45,3111.13 V 1193.31 h 472.67 v 1917.82 z m 515.29,530.79 c 0,-368.07 -557.91,-368.07 -557.91,0 0,368.07 557.91,368.07 557.91,0" /><path
         id="path24"
         style="fill:#7a7e81;fill-opacity:1;fill-rule:nonzero;stroke:none"
         d="m 10329,2150.28 c 0,-344.82 255.7,-561.79 554,-561.79 302.2,0 542.4,228.59 542.4,561.79 0,344.82 -240.2,557.91 -542.4,557.91 -298.3,0 -554,-224.71 -554,-557.91 z m -31,1751.22 V 2843.8 c 112.3,197.59 426.1,306.07 627.6,306.07 557.9,0 972.5,-340.95 972.5,-999.59 0,-627.65 -422.3,-999.59 -984.1,-999.59 -232.5,0 -468.8,77.48 -616,306.07 l -31,-263.45 H 9825.28 V 3901.5 H 10298" /><path
         id="path26"
         style="fill:#7a7e81;fill-opacity:1;fill-rule:nonzero;stroke:none"
         d="m 12684.6,3103.38 34.9,-220.84 c 147.2,236.34 344.8,271.21 538.5,271.21 197.6,0 387.4,-77.49 492.1,-182.1 L 13537,2560.96 c -96.9,81.37 -186,123.98 -341,123.98 -248,0 -476.5,-131.73 -476.5,-484.3 V 1193.31 h -472.7 v 1910.07 h 437.8" /><path
         id="path28"
         style="fill:#7a7e81;fill-opacity:1;fill-rule:nonzero;stroke:none"
         d="m 14296.3,2150.28 c 0,-364.2 251.8,-581.16 565.7,-581.16 743.9,0 743.9,1158.45 0,1158.45 -313.9,0 -565.7,-213.1 -565.7,-577.29 z m 1146.8,953.1 h 453.3 V 1193.31 h -445.5 l -23.3,278.95 c -108.5,-224.71 -406.8,-333.2 -619.9,-337.07 -565.6,-3.87 -984.1,344.82 -984.1,1015.09 0,658.64 437.8,1003.47 995.7,999.59 255.8,0 499.8,-120.11 608.3,-309.95 l 15.5,263.46" /><path
         id="path30"
         style="fill:#7a7e81;fill-opacity:1;fill-rule:nonzero;stroke:none"
         d="m 2421.81,2572.78 c -11.64,670.35 -426.25,1332.95 -1356.21,1332.95 -333.26,0 -732.366,0 -1065.6,0 L 507.598,3421.38 H 1065.6 c 588.98,0 836.97,-422.38 848.59,-844.74 0.56,-21.34 0.51,-42.7 -0.14,-64.02 C 1900.83,1846.96 1479.58,1193.31 558,1193.31 c 174.648,0 348.621,0 507.6,0 949.33,0 1367.83,693.6 1356.21,1379.47" /><path
         id="path32"
         style="fill:#7a7e81;fill-opacity:1;fill-rule:nonzero;stroke:none"
         d="m 1848.03,2177.88 c -0.01,-0.02 -0.01,-0.03 -0.02,-0.05 0.01,0.02 0.01,0.03 0.02,0.05" /><path
         id="path34"
         style="fill:#d01c31;fill-opacity:1;fill-rule:nonzero;stroke:none"
         d="M 1065.6,1685.43 H 507.598 V 3421.38 L 0,3905.73 v -2220.3 -492.12 c 174.266,0 366.539,0 558,0 927.09,0 1347.93,661.49 1356.32,1331.27 -8.29,-424.29 -256.82,-839.15 -848.72,-839.15" /></g></g></svg>